<?xml version="1.0" standalone="no"?>
<!DOCTYPE svg PUBLIC "-//W3C//DTD SVG 1.1//EN" "http://www.w3.org/Graphics/SVG/1.1/DTD/svg11.dtd" >
<svg xmlns="http://www.w3.org/2000/svg" xmlns:xlink="http://www.w3.org/1999/xlink" version="1.1">
<metadata>
Created by FontForge 20161003 at Wed Sep 20 15:12:41 2017
 By www-data
Copyright (c) 1992
</metadata>
<defs>
<font id="CaslonNormal" horiz-adv-x="823" >
  <font-face 
    font-family="CaslonNormal"
    font-weight="400"
    font-stretch="normal"
    units-per-em="1000"
    panose-1="0 0 0 0 0 0 0 0 0 0"
    ascent="800"
    descent="-200"
    x-height="400"
    cap-height="661"
    bbox="0 -179 1156 827"
    underline-thickness="55"
    underline-position="-157"
    unicode-range="U+0020-2215"
  />
<missing-glyph horiz-adv-x="821" 
d="M51 0v821h719v-821h-719zM719 51v719h-617v-719h617z" />
    <glyph glyph-name=".notdef" horiz-adv-x="821" 
d="M51 0v821h719v-821h-719zM719 51v719h-617v-719h617z" />
    <glyph glyph-name=".null" horiz-adv-x="0" 
 />
    <glyph glyph-name="nonmarkingreturn" horiz-adv-x="466" 
 />
    <glyph glyph-name="space" unicode=" " horiz-adv-x="466" 
 />
    <glyph glyph-name="exclam" unicode="!" horiz-adv-x="172" 
d="M4 55q0 32 18.5 50.5t50.5 18.5q31 0 50 -19t19 -50t-19 -50t-50 -19t-50 19t-19 50zM87 179h-28q0 89 -27.5 217.5t-27.5 182.5q0 39 13 63q18 33 56 33q37 0 55 -32q14 -26 14 -64q0 -40 -37 -233q-18 -94 -18 -167z" />
    <glyph glyph-name="quotedbl" unicode="&#x22;" horiz-adv-x="276" 
d="M150 614l-2 6q0 22 13.5 35.5t31.5 13.5t31.5 -12.5t13.5 -34.5l-14 -181q0 -19 -8.5 -30t-18.5 -11t-19 11t-9 30zM18 441l-14 177v4q0 22 13.5 34.5t27.5 12.5q16 0 29 -12t13 -33v-4l-14 -179q0 -20 -8.5 -30.5t-19.5 -10.5q-10 0 -18.5 10.5t-8.5 30.5z" />
    <glyph glyph-name="numbersign" unicode="#" horiz-adv-x="493" 
d="M132 469l27 192h69l-27 -192h110l28 192h68l-27 -192h83v-69h-95l-18 -138h85v-69h-94l-30 -193h-69l30 193h-111l-29 -193h-69l30 193h-85v69h94l20 138h-87v69h97zM281 262l20 138h-110l-22 -138h112z" />
    <glyph glyph-name="dollar" unicode="$" horiz-adv-x="493" 
d="M211 675v69h41v-69q74 0 122 -27.5t57 -82.5v-12q0 -23 -17 -37t-40 -14q-25 0 -46 17t-21 46q0 37 -6 52q-12 31 -49 31v-235q95 -39 148 -94q59 -62 59 -140q0 -101 -77 -153q-59 -40 -130 -40v-96h-41v96q-66 0 -121.5 22t-71.5 61q-12 27 -12 47q0 26 16 39.5
t39 13.5q22 0 43 -12.5t24 -32.5q13 -65 26 -84q17 -26 57 -26v275q-96 54 -126 80q-67 59 -67 141q0 64 39 108q51 57 154 57zM362 124q0 43 -29 80t-81 58v-248q44 0 77 30t33 80zM211 441v207q-43 -7 -66 -20.5t-31 -48.5l-4 -22q0 -31 28 -61q24 -26 73 -55z" />
    <glyph glyph-name="percent" unicode="%" horiz-adv-x="687" 
d="M358 579q20 0 59 21q52 28 79 75h55l-386 -689h-55l337 599q-30 -22 -54 -33t-47 -11q-6 0 -16 2.5t-13 3.5v-10q0 -23 -7.5 -51t-20.5 -59q-20 -50 -66 -83t-97 -33q-18 0 -34 4.5t-39.5 16.5t-37 41t-13.5 68q0 30 11 64t28 60q35 47 84 70q40 19 80 19q10 0 21.5 -2
t21.5 -4q33 -13 49 -45q13 -26 40 -26zM222 622q-51 0 -98 -72.5t-47 -138.5q0 -48 33 -67q9 -3 16.5 -5t13.5 -2q32 0 63 24q36 28 59 80q13 31 19 60t6 48v18q-19 7 -37.5 22.5t-27.5 32.5zM606 110q13 30 19.5 59t6.5 48q0 30 -10.5 47.5t-28.5 24.5q-4 1 -12.5 1.5
t-11.5 0.5q-51 0 -98.5 -72t-47.5 -138q0 -48 32 -67q6 -3 14.5 -5.5t14.5 -2.5q32 0 63 24q37 29 59 80zM386 234q35 47 82 70q39 19 79 19q10 0 24.5 -2.5t21.5 -3.5q33 -11 49.5 -40t16.5 -68q0 -54 -25 -113q-21 -50 -67 -82t-97 -32q-35 0 -70 18q-25 13 -39.5 43.5
t-14.5 66.5q0 69 40 124z" />
    <glyph glyph-name="ampersand" unicode="&#x26;" horiz-adv-x="648" 
d="M193 356q-28 39 -43.5 81.5t-15.5 84.5q0 70 46.5 111.5t106.5 41.5q54 0 94 -32q46 -37 46 -100v-13q0 -50 -37 -89q-28 -29 -63 -41q56 -78 108 -170l41 85l7.5 20t4.5 19q0 14 -13.5 21.5t-47.5 10.5v27h177v-27q-43 -5 -62 -23q-10 -9 -30 -48l-63 -122
q17 -65 37.5 -101.5t43.5 -36.5q32 0 66 73h22q-18 -66 -54 -104q-41 -42 -88 -42q-38 0 -66 15t-56 60q-21 -34 -68 -54.5t-99 -20.5q-54 0 -98 22t-67 67q-18 35 -18 73q0 72 62 136q57 59 127 76zM346 87l-131 242q-47 -23 -72 -55t-25 -75q0 -14 5 -35q2 -7 11 -42
q14 -40 46 -68t70 -28q25 0 51 15t45 46zM311 427q29 19 45 45q20 32 20 71q0 46 -22.5 72.5t-56.5 26.5h-12q-24 -4 -36.5 -22t-12.5 -41q0 -38 25 -85t50 -67z" />
    <glyph glyph-name="quotesingle" unicode="'" horiz-adv-x="182" 
d="M83 537q-37 4 -57 24.5t-20 46.5q0 20 13 39t36 28l26 4q28 0 49.5 -20.5t21.5 -52.5q0 -75 -37 -129q-29 -43 -80 -70l-13 20q30 16 49.5 46t19.5 51q0 13 -8 13z" />
    <glyph glyph-name="parenleft" unicode="(" horiz-adv-x="298" 
d="M260 675v-27q-67 -44 -107 -132q-45 -98 -45 -227q0 -127 45 -225q41 -89 107 -133v-27q-117 39 -186 156q-62 106 -62 229q0 124 61 229q69 118 187 157z" />
    <glyph glyph-name="parenright" unicode=")" horiz-adv-x="298" 
d="M12 675q117 -39 186 -156q62 -106 62 -230q0 -122 -62 -228q-69 -118 -186 -157v27q66 44 106 132q45 98 45 226q0 129 -44 226q-40 88 -107 133v27z" />
    <glyph glyph-name="asterisk" unicode="*" horiz-adv-x="422" 
d="M177 500q0 28 -20.5 72t-20.5 62q0 24 13.5 37.5t33.5 13.5q19 0 34 -14t15 -37q0 -24 -26 -81q-13 -28 -13 -47l2 -6l14 -6q18 13 61 68q19 25 29 29.5t23 7.5t19 3q19 0 32 -11t13 -26t-10.5 -29.5t-32.5 -25.5q-9 -5 -81 -18q-33 -6 -47 -14v-6q28 -21 76.5 -22t58 -6
t16 -18.5t6.5 -25.5q0 -19 -10.5 -33.5t-28.5 -14.5l-18 4q-20 7 -39 29q-62 70 -67 74l-14 -10q3 -25 26 -86q11 -29 11 -46q0 -24 -14.5 -38.5t-34.5 -14.5q-19 0 -33 14t-14 39q0 22 20.5 65t20.5 67l-12 10q-23 -19 -65 -77q-13 -18 -33 -26l-18 -4q-19 0 -34 15t-15 33
q0 14 10 27q15 24 70 28.5t79 16.5v14q-16 8 -57 14q-58 9 -68 11t-19 14t-9 26q0 19 12.5 35t30.5 16q14 0 32 -9q16 -10 31 -31q41 -58 53 -68z" />
    <glyph glyph-name="plus" unicode="+" horiz-adv-x="441" 
d="M169 400h69v-166h166v-69h-166v-165h-69v165h-165v69h165v166z" />
    <glyph glyph-name="comma" unicode="," horiz-adv-x="182" 
d="M83 -14q-37 4 -57 24.5t-20 46.5q0 20 13 39t36 28l26 4q28 0 49.5 -20.5t21.5 -52.5q0 -75 -37 -129q-29 -43 -80 -70l-13 20q29 16 49 46.5t20 51.5q0 12 -8 12z" />
    <glyph glyph-name="hyphen" unicode="-" horiz-adv-x="400" 
d="M8 152v82h358v-82h-358z" />
    <glyph glyph-name="period" unicode="." horiz-adv-x="172" 
d="M4 55q0 32 18.5 50.5t50.5 18.5q31 0 50 -19t19 -50t-19 -50t-50 -19t-50 19t-19 50z" />
    <glyph glyph-name="slash" unicode="/" horiz-adv-x="327" 
d="M228 675h69l-220 -689h-69z" />
    <glyph glyph-name="zero" unicode="0" horiz-adv-x="502" 
d="M348 331q0 169 -28 243t-82 74t-82 -73t-28 -244q0 -169 28 -243t82 -74t82 73t28 244zM238 -14q-110 0 -169 79q-65 87 -65 266q0 178 65 265q59 79 169 79t169 -79q65 -86 65 -265q0 -178 -65 -265q-60 -80 -169 -80z" />
    <glyph glyph-name="one" unicode="1" horiz-adv-x="359" 
d="M100 96v414q0 43 -17 56t-79 13v27q67 11 119 29.5t74 39.5h27v-579q0 -41 18 -54.5t79 -13.5v-28h-317v28q61 0 78.5 12.5t17.5 55.5z" />
    <glyph glyph-name="two" unicode="2" horiz-adv-x="493" 
d="M18 0l-2 14q0 45 23 93q18 37 46.5 71t93.5 96q79 76 87 84q25 25 38 56.5t13 57.5q0 35 -18 65t-47 42q-9 4 -21.5 6t-21.5 2q-60 0 -125 -73q-36 -46 -47 -59h-33q22 82 77 140q75 80 185 80q91 0 135 -49t44 -144q0 -63 -44 -120q-33 -43 -66 -59q-102 -59 -149 -90
q-82 -54 -113 -117h262q31 0 58.5 19.5t37.5 49.5l28 -13l-55 -152h-386z" />
    <glyph glyph-name="three" unicode="3" horiz-adv-x="473" 
d="M118 331v27q53 0 109 58t56 121q0 35 -19 57t-49 22q-33 0 -68 -25.5t-70 -80.5l-28 14q37 72 58 96q49 55 121 55q80 0 119 -27q47 -33 47 -111q0 -54 -48 -96q-28 -25 -90 -55q66 -15 113 -53q66 -54 66 -140q0 -77 -44 -133q-58 -74 -176 -74q-101 0 -162 37
q-53 32 -53 73q0 24 22 42q14 12 39 12t45 -13t26.5 -44.5t31.5 -55t64 -23.5t61 51t22 128q0 69 -53 103.5t-140 34.5z" />
    <glyph glyph-name="four" unicode="4" horiz-adv-x="524" 
d="M394 675v-427h96v-69h-96v-179h-124v179h-262v83q93 58 163 155q84 115 112 258h111zM270 248v289q0 -75 -72 -165q-59 -74 -135 -124h207z" />
    <glyph glyph-name="five" unicode="5" horiz-adv-x="483" 
d="M77 661h275q16 0 30.5 7.5t24.5 20.5h28l-28 -138h-303l-13 -110h51q147 0 224 -55q83 -59 83 -179q0 -99 -69 -162q-64 -59 -152 -59q-94 0 -151 26q-69 32 -69 98q0 28 19.5 44.5t47.5 16.5q25 0 44.5 -15t26.5 -46q1 -38 6 -58q11 -38 63 -38q34 0 78 34q59 45 59 117
q0 78 -55 124t-145 46q-54 0 -117 -18z" />
    <glyph glyph-name="six" unicode="6" horiz-adv-x="483" 
d="M407 675v-27q-102 -37 -176 -121q-52 -59 -99 -155q15 14 43.5 22t64.5 8q82 0 139 -43q70 -53 70 -152q0 -94 -57.5 -157.5t-149.5 -63.5q-118 0 -179 72q-55 65 -55 176q0 175 117 290q100 98 282 151zM132 344q-12 -62 -12 -118q0 -93 30.5 -152.5t77.5 -59.5
q49 0 73 52.5t24 140.5q0 87 -37 130q-30 35 -77 35q-24 0 -45.5 -8t-33.5 -20z" />
    <glyph glyph-name="seven" unicode="7" horiz-adv-x="473" 
d="M439 661v-55q-78 -129 -112 -196q-52 -101 -78 -194q-30 -106 -30 -216h-125q0 111 102 296q83 151 174 255h-276q-14 0 -29 -7.5t-26 -19.5h-27l27 137h400z" />
    <glyph glyph-name="eight" unicode="8" horiz-adv-x="493" 
d="M283 386q40 26 54.5 55.5t14.5 82.5q0 124 -124 124q-45 0 -77.5 -29.5t-32.5 -71.5q0 -10 4 -23.5t10 -27.5q15 -31 56 -59q29 -20 95 -51zM77 165q0 -58 48.5 -104.5t102.5 -46.5q49 0 80 33t31 77q0 76 -79 132q-21 15 -101 61q-42 -21 -62 -56.5t-20 -95.5zM8 165
q0 61 35.5 108t88.5 58q-67 47 -85 74q-25 37 -25 105q0 72 57 118.5t149 46.5q78 0 133 -39q60 -43 60 -112q0 -53 -30 -94t-80 -58q83 -52 117.5 -98.5t34.5 -108.5q0 -90 -65 -136q-61 -43 -170 -43q-110 0 -165 47t-55 132z" />
    <glyph glyph-name="nine" unicode="9" horiz-adv-x="483" 
d="M49 -14v28q80 29 141 84q74 67 135 191q-19 -22 -52 -35.5t-68 -13.5q-78 0 -133 52q-64 60 -64 163q0 94 58 157t149 63q118 0 179 -72q55 -65 55 -176q0 -174 -118 -290q-101 -99 -282 -151zM325 317q6 29 8 57.5t2 58.5q0 93 -30 154t-77 61q-50 0 -73 -52.5
t-23 -140.5q0 -92 29 -142q26 -45 69 -45q22 0 47 13t48 36z" />
    <glyph glyph-name="colon" unicode=":" horiz-adv-x="172" 
d="M4 55q0 32 18.5 50.5t50.5 18.5q31 0 50 -19t19 -50t-19 -50t-50 -19t-50 19t-19 50zM4 344q0 32 18.5 50.5t50.5 18.5t50.5 -18.5t18.5 -50.5q0 -30 -19 -49t-50 -19q-32 0 -50.5 18.5t-18.5 49.5z" />
    <glyph glyph-name="semicolon" unicode=";" horiz-adv-x="182" 
d="M14 344q0 32 18.5 50.5t50.5 18.5t50.5 -18.5t18.5 -50.5q0 -30 -19 -49t-50 -19q-32 0 -50.5 18.5t-18.5 49.5zM83 -14q-37 4 -57 24.5t-20 46.5q0 20 13 39t36 28l26 4q28 0 49.5 -20.5t21.5 -52.5q0 -75 -37 -129q-29 -43 -80 -70l-13 20q29 16 49 46.5t20 51.5
q0 12 -8 12z" />
    <glyph glyph-name="less" unicode="&#x3c;" horiz-adv-x="502" 
d="M4 220l468 221v-83l-372 -165l372 -165v-83l-468 220v55z" />
    <glyph glyph-name="equal" unicode="=" horiz-adv-x="463" 
d="M12 317h413v-69h-413v69zM12 96v69h413v-69h-413z" />
    <glyph glyph-name="greater" unicode="&#x3e;" horiz-adv-x="502" 
d="M472 220v-55l-468 -220v83l372 165l-372 165v83z" />
    <glyph glyph-name="question" unicode="?" horiz-adv-x="483" 
d="M159 179l-27 248h14q8 -17 39 -31t63 -14q44 0 71 22q33 27 33 78q0 71 -59 117q-45 35 -78 35q-51 0 -62 -38q-4 -30 -7 -59q-7 -30 -27 -46.5t-44 -16.5q-27 0 -47 18t-20 45q0 67 68 98q57 26 152 26q91 0 152 -53q69 -60 69 -167q0 -83 -73 -133q-61 -42 -132 -42
q-14 0 -30 5q-2 1 -13 5l-14 -97h-28zM104 55q0 31 19 50t50 19t50 -19t19 -50q0 -32 -18.5 -50.5t-50.5 -18.5q-31 0 -50 19t-19 50z" />
    <glyph glyph-name="at" unicode="@" horiz-adv-x="741" 
d="M449 303q16 61 16 91q0 36 -13.5 55.5t-30.5 19.5q-52 0 -92 -73q-36 -66 -36 -132q0 -58 32 -71q8 -4 18 -4q30 0 59 27q35 32 47 87zM417 508q29 0 51 -26q15 -18 22 -41l14 55h55l-55 -248l-4 -20q0 -19 12 -34t29 -15q15 0 33 9.5t39.5 31t32.5 56t11 76.5
q0 94 -54 165q-64 85 -186 103h-27q-124 0 -205 -86.5t-81 -230.5q0 -114 85 -191t211 -77q86 0 187 48l13 -28q-49 -27 -108 -41t-114 -14q-151 0 -257 84q-113 90 -113 233q0 137 91 241q102 117 267 117q161 0 258 -93q87 -83 87 -198v-12q0 -85 -47 -155
q-54 -81 -138 -81q-28 0 -51 14q-31 19 -40 57q-16 -27 -54.5 -48t-69.5 -21q-52 4 -74 33t-22 91q0 79 53 156q62 90 149 90z" />
    <glyph glyph-name="A" unicode="A" 
d="M331 551q-8 10 -12 14q-14 14 -26 14q23 11 51.5 36.5t39 47.5t18.5 22q12 0 21 -24l270 -565q20 -42 38 -55t58 -13v-28h-303v28q41 0 56 4.5t15 18.5q0 15 -16 45l-45 97h-293l-47 -97q-8 -14 -8 -27q0 -41 76 -41v-28h-220v28q42 0 66 13.5t44 54.5zM222 234h252
l-126 262z" />
    <glyph glyph-name="B" unicode="B" horiz-adv-x="658" 
d="M321 372q66 0 98 41q26 33 26 83q0 76 -45 110q-37 28 -107 28q-40 0 -54.5 -12t-14.5 -43v-207h97zM224 344v-248q0 -40 21.5 -54t75.5 -14q86 0 128 44q37 39 37 107q0 93 -56 134q-42 31 -109 31h-97zM404 0h-400v28q51 0 67 13t16 55v469q0 42 -15.5 55.5t-67.5 13.5
v27h331q131 0 189.5 -38t58.5 -113q0 -64 -35 -100t-117 -52q107 -19 153 -71q40 -45 40 -122q0 -63 -42 -106q-58 -59 -178 -59z" />
    <glyph glyph-name="C" unicode="C" horiz-adv-x="597" 
d="M535 220h28v-234h-28q0 42 -33 42q-7 0 -16 -4t-19 -10q-33 -13 -63.5 -20.5t-60.5 -7.5q-134 0 -228 89q-103 97 -103 256q0 157 103 254q95 90 228 90q37 0 71 -6.5t66 -20.5q7 -3 16 -6.5t12 -3.5q18 0 31 25h24v-222h-28q-19 101 -77 157q-52 50 -115 50
q-80 0 -133 -76q-60 -86 -60 -241t60 -241q53 -76 133 -76q63 0 115 50q59 57 77 156z" />
    <glyph glyph-name="D" unicode="D" horiz-adv-x="772" 
d="M604 344q0 153 -94 233q-67 57 -140 57q-62 0 -100 -2.5t-38 -25.5v-510q0 -36 25 -54t86 -18q7 0 29 2t26 2q95 8 152 93q54 80 54 200v23zM398 0h-386v28q52 0 67 13t15 55v469q0 42 -15.5 55.5t-66.5 13.5v27h358q157 0 261 -79q111 -84 111 -224v-29q0 -157 -98 -245
q-93 -84 -246 -84z" />
    <glyph glyph-name="E" unicode="E" horiz-adv-x="680" 
d="M587 0h-579v28q51 0 67 13t16 55v469q0 42 -15.5 55.5t-67.5 13.5v27h468q16 0 30.5 7.5t24.5 20.5h28l61 -213l-20 -7q-43 70 -87 108q-66 57 -147 57h-138v-276h69q78 0 124 43q42 39 42 95h27v-317h-27q0 66 -41 107q-45 45 -125 45h-69v-303h166q80 0 146 56
q46 39 88 109l20 -8z" />
    <glyph glyph-name="F" unicode="F" horiz-adv-x="648" 
d="M228 96q0 -41 16 -54.5t67 -13.5v-28h-303v28q51 0 67 13t16 55v469q0 42 -15.5 55.5t-67.5 13.5v27h468q16 0 30.5 7.5t24.5 20.5h28l61 -213l-20 -7q-43 70 -87 108q-66 57 -147 57h-96q-42 0 -42 -41v-235h69q78 0 124 43q42 39 42 95h27v-317h-27q0 66 -41 107
q-45 45 -125 45h-69v-235z" />
    <glyph glyph-name="G" unicode="G" horiz-adv-x="711" 
d="M343 14q69 0 106 23q45 28 45 87v96q0 33 -18 44.5t-78 11.5v27h275v-27q-41 0 -41 -42v-151q-30 -40 -116.5 -68.5t-172.5 -28.5q-134 0 -228 89q-103 97 -103 256q0 157 103 254q95 90 228 90q64 0 130 -27.5t76 -27.5q35 0 55 41h28v-220h-28q-27 82 -102 143
q-78 64 -159 64q-80 0 -133 -76q-60 -86 -60 -241t60 -241q53 -76 133 -76z" />
    <glyph glyph-name="H" unicode="H" 
d="M573 372v193q0 42 -15.5 55.5t-67.5 13.5v27h303v-27q-52 0 -67 -13t-15 -56v-469q0 -41 15.5 -54.5t66.5 -13.5v-28h-303v28q51 0 67 13t16 55v235h-345v-235q0 -43 15.5 -55.5t67.5 -12.5v-28h-303v28q51 0 67 13t16 55v469q0 42 -15.5 55.5t-67.5 13.5v27h303v-27
q-50 0 -66.5 -13.5t-16.5 -55.5v-193h345z" />
    <glyph glyph-name="I" unicode="I" horiz-adv-x="337" 
d="M224 96q0 -43 15.5 -55.5t67.5 -12.5v-28h-303v28q51 0 67 13t16 55v469q0 42 -15.5 55.5t-67.5 13.5v27h303v-27q-50 0 -66.5 -13.5t-16.5 -55.5v-469z" />
    <glyph glyph-name="J" unicode="J" horiz-adv-x="483" 
d="M362 234q0 -114 -43 -168q-36 -45 -108 -66q-15 -4 -35.5 -6t-37.5 -2q-13 0 -29 0.5t-38.5 8.5t-43.5 39.5t-21 61.5q0 23 13 40t40 23l16 2q32 0 49.5 -34t17.5 -92q0 -10 8.5 -17.5t20.5 -7.5q18 0 35.5 11t17.5 28v510q0 42 -15.5 55.5t-66.5 13.5v27h303v-27
q-50 0 -66.5 -13.5t-16.5 -55.5v-331z" />
    <glyph glyph-name="K" unicode="K" horiz-adv-x="741" 
d="M266 303l-40 -53l-2 -154q0 -43 15.5 -55.5t67.5 -12.5v-28h-303v28q51 0 67 13t16 55v469q0 42 -15.5 55.5t-67.5 13.5v27h303v-27q-50 0 -66.5 -13.5t-16.5 -55.5v-262l207 262q9 13 14.5 25t5.5 18q0 26 -61 26v27h220v-27q-57 0 -85 -16q-21 -12 -51 -53l-130 -165
l239 -317q29 -40 49 -47.5t75 -7.5v-28h-235z" />
    <glyph glyph-name="L" unicode="L" horiz-adv-x="689" 
d="M321 28h83q80 0 146 56q43 37 88 109l19 -8l-61 -185h-592v28q51 0 67 13t16 55v469q0 42 -15.5 55.5t-67.5 13.5v27h303v-27q-50 0 -66.5 -13.5t-16.5 -55.5v-469q0 -40 21.5 -54t75.5 -14z" />
    <glyph glyph-name="M" unicode="M" horiz-adv-x="886" 
d="M246 661l189 -462l183 462h234v-27q-52 0 -67 -13t-15 -56v-469q0 -41 15.5 -54.5t66.5 -13.5v-28h-303v28q51 0 67 13t16 55v497l-234 -593h-28l-234 577v-481q0 -41 16 -54.5t67 -13.5v-28h-207v28q52 0 67 13t15 55v469q0 42 -15.5 55.5t-66.5 13.5v27h234z" />
    <glyph glyph-name="N" unicode="N" horiz-adv-x="731" 
d="M242 661l331 -441v345q0 42 -15.5 55.5t-67.5 13.5v27h207v-27q-52 0 -67.5 -13.5t-15.5 -55.5v-579h-41l-441 593v-483q0 -41 16 -54.5t67 -13.5v-28h-207v28q51 0 67 13t16 55v469q0 42 -15.5 55.5t-67.5 13.5v27h234z" />
    <glyph glyph-name="O" unicode="O" horiz-adv-x="711" 
d="M535 331q0 155 -60 241q-53 76 -132 76q-80 0 -133 -76q-60 -86 -60 -241t60 -241q53 -76 133 -76t132 75q60 86 60 242zM343 -14q-134 0 -228 89q-103 97 -103 256q0 157 103 254q95 90 228 90t227 -89q103 -97 103 -255q0 -157 -103 -255q-95 -90 -227 -90z" />
    <glyph glyph-name="P" unicode="P" horiz-adv-x="638" 
d="M301 634q-40 0 -54.5 -12t-14.5 -43v-221l59 -4q83 0 127 32q49 36 49 110q0 72 -41 105t-125 33zM356 661q116 0 182 -39.5t66 -111.5q0 -83 -67 -131t-181 -48h-124v-235q0 -43 15.5 -55.5t67.5 -12.5v-28h-303v28q52 0 67 13t15 55v469q0 42 -15.5 55.5t-66.5 13.5v27
h344z" />
    <glyph glyph-name="Q" unicode="Q" horiz-adv-x="711" 
d="M246 2q-104 31 -166 112q-68 88 -68 217q0 157 103 254q95 90 228 90t227 -89q103 -97 103 -255q0 -130 -71 -220q-65 -83 -171 -111q10 -43 41 -64t75 -21q20 0 43 4t56 12l13 -20q-37 -19 -90 -31t-104 -12q-81 0 -138 31q-64 35 -81 103zM535 331q0 155 -60 241
q-53 76 -132 76q-80 0 -133 -76q-60 -86 -60 -241t60 -241q53 -76 133 -76t132 75q60 86 60 242z" />
    <glyph glyph-name="R" unicode="R" horiz-adv-x="772" 
d="M449 337q18 -10 24 -15q16 -12 31 -33l110 -206q30 -39 50 -47t74 -8v-28h-234l-124 262q-18 45 -70 60q-30 9 -82 9v-235q0 -43 15.5 -55.5t67.5 -12.5v-28h-303v28q51 0 67 13t16 55v469q0 42 -15.5 55.5t-67.5 13.5v27h358q116 0 182 -39.5t66 -111.5
q0 -66 -44 -111.5t-121 -61.5zM228 358h83q75 0 118 33q47 36 47 105q0 71 -51 105.5t-144 34.5l-53 -2v-276z" />
    <glyph glyph-name="S" unicode="S" horiz-adv-x="546" 
d="M439 441q-9 55 -45 107q-25 37 -51 58q-26 23 -55.5 33.5t-57.5 10.5q-41 0 -71.5 -20.5t-36.5 -50.5l-4 -20q0 -39 37 -72t105 -60q151 -61 197 -105q51 -49 51 -143q0 -98 -70 -148q-62 -45 -164 -45q-40 0 -101 15t-77 15q-32 0 -43 -30h-41v234h27q36 -118 110 -170
q51 -36 111 -36q66 0 101 25q39 28 39 83l-2 30q-5 32 -49 65q-22 17 -75 45q-82 37 -163 74q-99 58 -99 146q0 84 65.5 138.5t168.5 54.5q38 0 92.5 -20.5t68.5 -20.5q29 0 46 27h14v-220h-28z" />
    <glyph glyph-name="T" unicode="T" horiz-adv-x="770" 
d="M152 661h441q15 0 29.5 7.5t25.5 20.5h27l61 -213l-19 -7q-45 71 -88 108q-67 57 -147 57q-41 0 -41 -41v-497q0 -43 15.5 -55.5t67.5 -12.5v-28h-304v28q51 0 67 13t16 55v497q0 41 -41 41q-81 0 -146 -56q-45 -38 -88 -109l-20 7l61 213h27q25 -28 56 -28z" />
    <glyph glyph-name="U" unicode="U" 
d="M228 220q0 -109 58 -159q55 -47 163 -47q80 0 140 37q80 49 80 142v372q0 42 -15.5 55.5t-66.5 13.5v27h206v-27q-52 0 -67 -13t-15 -56v-386q0 -108 -108 -158q-76 -35 -182 -35q-139 0 -222 45q-108 59 -108 189v345q0 42 -15.5 55.5t-67.5 13.5v27h303v-27
q-52 0 -67.5 -13.5t-15.5 -55.5v-345z" />
    <glyph glyph-name="V" unicode="V" 
d="M449 165l193 400l4 26q0 20 -17 31.5t-56 11.5v27h220v-27q-43 0 -66 -13.5t-44 -55.5l-276 -579h-27l-276 579q-21 43 -38.5 56t-57.5 13v27h303v-27q-73 0 -73 -26q0 -6 7.5 -21t10.5 -22z" />
    <glyph glyph-name="W" unicode="W" horiz-adv-x="1061" 
d="M693 -14h-28l-155 386l-148 -386h-27l-235 579q-21 43 -38.5 56t-57.5 13v27h289v-27q-55 0 -55 -28q0 -6 4 -16.5t10 -24.5l150 -370l86 226l-57 144q-21 44 -23 46q-15 23 -60 23v27h290v-27q-73 0 -73 -26q0 -6 7.5 -21t10.5 -22l149 -372l140 372l4 26q0 20 -18 31.5
t-55 11.5v27h221v-27q-43 0 -66.5 -14t-44.5 -55z" />
    <glyph glyph-name="X" unicode="X" horiz-adv-x="804" 
d="M628 565l-179 -197l207 -272q29 -39 53.5 -53.5t56.5 -14.5v-28h-303v28q22 0 31.5 3t9.5 12q0 17 -28 53l-124 166l-151 -166q-30 -28 -30 -45q0 -23 57 -23v-28h-220v28q42 0 69 13t69 55l181 197l-209 272q-30 40 -54 54.5t-56 14.5v27h303v-27q-43 0 -43 -18
q0 -7 7 -18.5t22 -32.5l126 -165l150 165q27 27 27 43q0 26 -55 26v27h221v-27q-43 0 -69 -13t-69 -56z" />
    <glyph glyph-name="Y" unicode="Y" horiz-adv-x="804" 
d="M453 317v-221q0 -43 15.5 -55.5t66.5 -12.5v-28h-303v28q51 0 67 13t16 55v221l-193 248q-30 40 -54 54.5t-56 14.5v27h303v-27q-43 0 -43 -18q0 -12 29 -51l146 -185l144 185q21 32 21 45q0 24 -63 24v27h221v-27q-43 0 -68 -13.5t-56 -55.5z" />
    <glyph glyph-name="Z" unicode="Z" horiz-adv-x="658" 
d="M425 634h-151q-80 0 -147 -54q-39 -31 -88 -98h-27l55 179h524v-27l-414 -606h193q80 0 146 56q46 39 88 109l20 -8l-61 -185h-551v28z" />
    <glyph glyph-name="bracketleft" unicode="[" horiz-adv-x="235" 
d="M4 661h195l-2 -27h-110v-689h110v-28h-193v744z" />
    <glyph glyph-name="backslash" unicode="\" horiz-adv-x="410" 
d="M8 675h69l303 -689h-69z" />
    <glyph glyph-name="bracketright" unicode="]" horiz-adv-x="256" 
d="M122 634h-110v27h207v-744h-207v28h110v689z" />
    <glyph glyph-name="asciicircum" unicode="^" horiz-adv-x="441" 
d="M197 551l-110 -234h-83l165 344h55l180 -344h-83z" />
    <glyph glyph-name="underscore" unicode="_" horiz-adv-x="502" 
d="M4 -110v41h468v-41h-468z" />
    <glyph glyph-name="grave" unicode="`" horiz-adv-x="183" 
d="M120 671l14 -21q-22 -27 -36 -43q-27 -32 -27 -50q0 -6 3.5 -11.5t10.5 -10.5q39 -23 47 -31q18 -18 18 -47v-14q0 -22 -18.5 -35.5t-42.5 -13.5q-32 0 -54 22q-25 25 -25 70q0 48 21 87q26 48 89 98z" />
    <glyph glyph-name="a" unicode="a" horiz-adv-x="493" 
d="M307 262q0 61 -31.5 92.5t-76.5 31.5h-16q-31 0 -58 -43.5t-27 -106.5l2 -16q0 -89 45 -139q38 -42 89 -42q20 0 40 8.5t33 21.5v193zM404 96q0 -29 6 -38q11 -17 49 -17v-27l-152 -28v55q-20 -26 -52.5 -40.5t-71.5 -14.5q-70 0 -120 45q-59 53 -59 148l-2 16
q0 93 48 152q54 66 147 66q60 0 96 -15q27 -13 55 -26l56 41v-317z" />
    <glyph glyph-name="b" unicode="b" horiz-adv-x="493" 
d="M59 -14v551q0 29 -6 38q-12 18 -49 18v27q51 0 84.5 9.5t67.5 31.5v-303q19 27 51 41t71 14q69 0 120 -45q61 -54 61 -148v-17q0 -93 -47 -152q-52 -65 -146 -65q-60 0 -92 14t-60 28q-10 0 -16.5 -17t-10.5 -25h-28zM362 179q0 89 -46 138q-38 41 -90 41q-19 0 -39 -8
t-31 -19v-193q0 -68 36 -98q31 -26 88 -26q31 0 56.5 42t25.5 105v18z" />
    <glyph glyph-name="c" unicode="c" horiz-adv-x="432" 
d="M201 413q56 0 101.5 -16.5t71.5 -53.5q12 -21 12 -42q0 -22 -17 -37.5t-44 -15.5q-39 0 -59.5 65.5t-78.5 72.5h-6q-34 0 -56.5 -41.5t-22.5 -102.5l2 -22q0 -86 41 -136q35 -43 83 -43q51 0 84 30t54 94h28q-10 -102 -89 -148q-53 -31 -118 -31q-72 0 -121 44
q-58 52 -58 149l-2 12q0 91 54.5 156.5t140.5 65.5z" />
    <glyph glyph-name="d" unicode="d" horiz-adv-x="493" 
d="M407 96q0 -27 7 -38q11 -17 49 -17v-27l-152 -28v55q-20 -26 -52.5 -40.5t-71.5 -14.5q-70 0 -120 45q-59 53 -59 148l-2 16q0 93 48 152q54 66 147 66q39 0 63.5 -9.5t46.5 -31.5v165q0 29 -6 38q-12 18 -49 18v27q51 0 84.5 9.5t66.5 31.5v-565zM311 262
q0 61 -31.5 92.5t-76.5 31.5h-16q-31 0 -58 -43.5t-27 -106.5l2 -16q0 -89 45 -139q38 -42 89 -42q20 0 40 8.5t33 21.5v193z" />
    <glyph glyph-name="e" unicode="e" horiz-adv-x="432" 
d="M297 276v9q0 40 -26.5 70.5t-59.5 30.5h-10q-43 -5 -62 -19q-35 -26 -35 -91h193zM215 413q74 0 126.5 -46.5t52.5 -112.5v-20h-290q0 -81 44 -132q40 -47 94 -47q42 0 80 21.5t58 61.5l14 -14q-20 -70 -69.5 -104t-123.5 -34q-81 0 -134 51q-59 57 -59 156q0 94 58 157
t149 63z" />
    <glyph glyph-name="f" unicode="f" horiz-adv-x="410" 
d="M91 83v289h-83v28h83v13q0 106 18 150q32 80 133 98h26q41 0 76.5 -12.5t35.5 -42.5q0 -25 -14.5 -40t-34.5 -15q-17 0 -35 11.5t-26 30.5q-17 33 -42 33q-17 0 -29 -26t-12 -76v-124h96v-28h-96v-289q0 -32 16 -43.5t67 -11.5v-28h-262v28q51 0 67 11t16 44z" />
    <glyph glyph-name="g" unicode="g" horiz-adv-x="451" 
d="M128 152q-57 19 -79 51q-18 27 -18 73q0 64 58 102q50 33 118 33l43 -4q0 40 21 75q25 42 66 42h11q26 -4 38 -16.5t12 -29.5q0 -18 -14.5 -34.5t-35.5 -16.5q-13 0 -37 12q-12 6 -16 6q-7 0 -14.5 -10.5t-14.5 -34.5q52 -10 83 -48.5t31 -83.5q0 -40 -24 -70
q-27 -34 -76 -46q-75 -15 -112 -25q-68 -18 -68 -44q0 -10 11.5 -14t30.5 -4l69 4q86 0 139 -25q67 -32 67 -99q0 -74 -79 -104q-53 -20 -141 -20q-96 0 -144.5 22.5t-48.5 73.5q0 28 30 47q21 13 53 22q-39 0 -61 20t-22 49q0 49 30 69q24 16 94 28zM197 -152q62 0 95 13
q43 17 43 56q0 32 -29.5 43.5t-79.5 11.5l-74 -2h-16q-12 0 -22 2l-10 2q-17 0 -30 -14t-13 -33q0 -30 30 -52q37 -27 106 -27zM280 285q-13 47 -37.5 75t-51.5 28l-16 -2q-20 -6 -30.5 -22.5t-10.5 -40.5q0 -9 1 -16t7 -29q16 -54 43 -86q24 -29 49 -29l16 4q37 13 37 63
q0 15 -1 26t-6 29z" />
    <glyph glyph-name="h" unicode="h" horiz-adv-x="575" 
d="M173 317v-234q0 -32 14 -43.5t55 -11.5v-28h-234v28q42 0 55.5 11.5t13.5 43.5v454q0 29 -6 38q-12 18 -49 18v27q51 0 84.5 9.5t66.5 31.5v-317q28 32 67 48.5t81 16.5q64 0 107 -36q48 -41 48 -111v-179q0 -32 14 -43.5t55 -11.5v-28h-234v28q42 0 55.5 11.5t13.5 43.5
v179q0 53 -26.5 78.5t-66.5 25.5q-30 0 -60.5 -13t-53.5 -36z" />
    <glyph glyph-name="i" unicode="i" horiz-adv-x="276" 
d="M77 83v220q0 29 -6 38q-11 17 -49 17v28q51 0 84.5 9.5t66.5 31.5v-344q0 -32 14 -43.5t55 -11.5v-28h-234v28q42 0 55.5 11.5t13.5 43.5zM35 524q0 31 19 50t50 19t50 -19t19 -50q0 -32 -18.5 -50.5t-50.5 -18.5t-50.5 18.5t-18.5 50.5z" />
    <glyph glyph-name="j" unicode="j" horiz-adv-x="327" 
d="M201 -28v331q0 29 -6 38q-11 17 -49 17v28q51 0 84.5 9.5t66.5 31.5v-344q0 -106 -18 -150q-32 -80 -133 -98h-28q-41 0 -71 11q-39 14 -39 44q0 26 13.5 40.5t33.5 14.5q17 0 35.5 -11.5t26.5 -28t19 -26t21 -9.5q18 0 31 26t13 76zM159 524q0 31 19 50t50 19t50 -19
t19 -50q0 -32 -18.5 -50.5t-50.5 -18.5t-50.5 18.5t-18.5 50.5z" />
    <glyph glyph-name="k" unicode="k" horiz-adv-x="597" 
d="M173 207l152 124q23 19 23 29q0 12 -37 12v28h179v-28q-39 0 -61 -8t-35 -20l-97 -78l152 -183q33 -34 52.5 -44.5t57.5 -10.5v-28h-234v28q29 0 29 7q0 8 -29 48l-101 124l-51 -42v-82q0 -32 14 -43.5t55 -11.5v-28h-234v28q42 0 55.5 11.5t13.5 43.5v454q0 29 -6 38
q-12 18 -49 18v27q51 0 84.5 9.5t66.5 31.5v-454z" />
    <glyph glyph-name="l" unicode="l" horiz-adv-x="276" 
d="M173 83q0 -32 14 -43.5t55 -11.5v-28h-234v28q42 0 55.5 11.5t13.5 43.5v454q0 29 -6 38q-12 18 -49 18v27q51 0 84.5 9.5t66.5 31.5v-578z" />
    <glyph glyph-name="m" unicode="m" horiz-adv-x="855" 
d="M445 331q30 39 72 59.5t87 20.5q60 0 100 -37q44 -41 44 -112v-179q0 -32 14 -43.5t55 -11.5v-28h-234v28q42 0 55.5 11.5t13.5 43.5v179q0 52 -23.5 78t-59.5 26q-28 0 -60.5 -15.5t-55.5 -39.5q1 -2 3.5 -19t2.5 -30v-179q0 -32 13.5 -43.5t55.5 -11.5v-28h-235v28
q42 0 55.5 11.5t13.5 43.5v179q0 53 -23.5 78.5t-60.5 25.5q-27 0 -56.5 -13.5t-52.5 -35.5v-234q0 -32 14 -43.5t55 -11.5v-28h-234v28q42 0 55.5 11.5t13.5 43.5v220q0 29 -6 38q-11 17 -49 17v28q51 0 84.5 9.5t66.5 31.5v-83q31 34 68 50.5t76 16.5q43 0 78.5 -20.5
t53.5 -59.5z" />
    <glyph glyph-name="n" unicode="n" horiz-adv-x="575" 
d="M173 427v-83q28 32 67 48.5t81 16.5q64 0 107 -36q48 -41 48 -111v-179q0 -32 14 -43.5t55 -11.5v-28h-234v28q42 0 55.5 11.5t13.5 43.5v179q0 53 -26.5 78.5t-66.5 25.5q-30 0 -60.5 -13t-53.5 -36v-234q0 -32 14 -43.5t55 -11.5v-28h-234v28q42 0 55.5 11.5t13.5 43.5
v220q0 29 -6 38q-11 17 -49 17v28q51 0 84.5 9.5t66.5 31.5z" />
    <glyph glyph-name="o" unicode="o" horiz-adv-x="483" 
d="M228 -14q-96 0 -156 58q-64 62 -64 163q0 92 63 149t157 57q95 0 158 -57t63 -149q0 -101 -63 -161t-158 -60zM329 220q-15 79 -57 125q-36 39 -73 39h-12q-29 -6 -49 -38.5t-20 -81.5q0 -28 10 -71q20 -88 58 -138q33 -43 68 -43l14 2q29 7 49 39t20 89q0 27 -1.5 41.5
t-6.5 36.5z" />
    <glyph glyph-name="p" unicode="p" horiz-adv-x="502" 
d="M73 -83v386q0 29 -6 38q-11 17 -49 17v28q51 0 84.5 9.5t66.5 31.5v-69q19 27 51.5 41t70.5 14q70 0 121 -45q60 -53 60 -148v-17q0 -93 -47 -152q-52 -65 -145 -65q-41 0 -64.5 9.5t-46.5 32.5v-111q0 -32 13.5 -43.5t55.5 -11.5v-27h-234v27q40 0 54.5 12t14.5 43z
M169 138q0 -61 31 -93.5t76 -32.5l17 2q31 0 57 42.5t26 104.5v18q0 89 -46 138q-38 41 -90 41q-19 0 -38.5 -7.5t-32.5 -19.5v-193z" />
    <glyph glyph-name="q" unicode="q" horiz-adv-x="514" 
d="M311 -83v124q-20 -26 -52.5 -40.5t-71.5 -14.5q-70 0 -120 45q-59 53 -59 148l-2 16q0 93 48 152q54 66 147 66q60 0 96 -15q27 -13 55 -26l55 41v-496q0 -32 13.5 -43.5t55.5 -11.5v-27h-234v27q40 0 54.5 12t14.5 43zM104 220q0 -89 45 -139q38 -42 89 -42q20 0 40 8.5
t33 21.5v193q0 67 -36 98q-31 26 -88 26q-31 0 -58 -43.5t-27 -106.5z" />
    <glyph glyph-name="r" unicode="r" horiz-adv-x="432" 
d="M173 248v-165q0 -32 14 -43.5t55 -11.5v-28h-234v28q42 0 55.5 11.5t13.5 43.5v220q0 29 -6 38q-11 17 -49 17v28q51 0 84.5 9.5t66.5 31.5v-124q22 44 58 77t66 33q46 0 71.5 -12.5t25.5 -42.5q0 -22 -16.5 -37.5t-36.5 -15.5q-28 0 -44 26q-6 12 -23 12q-24 0 -57 -32
t-44 -63z" />
    <glyph glyph-name="s" unicode="s" horiz-adv-x="359" 
d="M4 165h27q15 -73 48.5 -112t76.5 -39q30 0 56 17t26 38q0 24 -19 45q-24 27 -77 51q-63 31 -83 48q-41 35 -41 90q0 50 45 82q40 28 93 28q46 0 92 -14t59 -27v-110h-27q-5 54 -41 92q-30 32 -56 32q-34 0 -62 -12t-28 -37l1 -8q3 -21 20 -36q8 -7 83 -45q55 -32 77 -53
q47 -45 47 -99q0 -65 -51 -91q-37 -19 -101 -19q-46 0 -93.5 8.5t-57.5 19.5z" />
    <glyph glyph-name="t" unicode="t" horiz-adv-x="339" 
d="M12 372v28q73 0 103 56q21 40 21 109h27v-165h138l-27 -28h-111v-289q0 -14 12 -27t34 -13q18 0 41 9.5t51 30.5v-28q-28 -33 -67.5 -51t-76.5 -18q-38 0 -64 22t-26 61v303h-55z" />
    <glyph glyph-name="u" unicode="u" horiz-adv-x="565" 
d="M376 55q-28 -32 -67 -48.5t-83 -16.5q-64 0 -106 36q-47 40 -47 112v179q0 32 -13.5 43.5t-55.5 11.5v28h165v-262q0 -52 28 -81q25 -26 63 -26q30 0 61 14t55 38v234q0 32 -13.5 43.5t-55.5 11.5v28h165v-304q0 -27 7 -38q11 -17 49 -17v-27l-152 -28v69z" />
    <glyph glyph-name="v" unicode="v" horiz-adv-x="565" 
d="M415 317l4 20q0 17 -17.5 26t-45.5 9v28h179v-28q-37 0 -56 -17q-12 -10 -26 -38l-166 -331h-27l-166 331q-16 34 -27 43q-15 12 -55 12v28h234v-28q-47 0 -47 -29q0 -3 2 -11t4 -15l104 -211z" />
    <glyph glyph-name="w" unicode="w" 
d="M270 -14h-28l-151 331q-17 34 -28 43q-16 12 -55 12v28h234v-28q-47 0 -47 -29q0 -3 2 -11t4 -15l92 -201l87 201q-17 34 -28 43q-16 12 -55 12v28h234v-28q-47 0 -47 -29q0 -3 2 -11t4 -15l93 -201l90 201l4 20q0 17 -17.5 26t-45.5 9v28h179v-28q-37 0 -57 -17
q-11 -10 -25 -38l-152 -331h-28l-131 290z" />
    <glyph glyph-name="x" unicode="x" horiz-adv-x="546" 
d="M108 317q-20 31 -41.5 43t-54.5 12v28h234v-28q-43 0 -43 -22q0 -5 6 -15.5l10 -17.5l59 -73l65 73q21 22 21 35q0 8 -10.5 14t-24.5 6v28h179v-28q-48 0 -71 -10q-14 -6 -39 -31l-99 -112l112 -136q20 -31 42.5 -43t54.5 -12v-28h-234v28q41 0 41 19q0 5 -4.5 16
t-9.5 20l-59 73l-65 -73q-23 -23 -23 -38q0 -8 10 -12.5t27 -4.5v-28h-179v28q39 0 63.5 9.5t46.5 31.5l98 112z" />
    <glyph glyph-name="y" unicode="y" horiz-adv-x="546" 
d="M232 -110q-12 -32 -38 -48q-21 -13 -48 -13t-46 13.5t-19 33.5q0 25 15 40t38 15q10 0 22.5 -4t22.5 -10q1 -1 8 -2q12 0 25.5 20.5t29.5 60.5l-148 321q-16 34 -27 43q-15 12 -55 12v28h234v-28q-47 0 -47 -29q0 -3 2 -11t4 -15l92 -201l91 201l4 20q0 16 -18.5 25.5
t-44.5 9.5v28h179v-28q-37 0 -57 -17q-11 -10 -26 -38z" />
    <glyph glyph-name="z" unicode="z" horiz-adv-x="502" 
d="M307 372h-110q-73 0 -112 -27q-29 -20 -54 -69h-27l37 124h404v-28l-317 -344h138q50 0 95 39q40 35 84 112l27 -14l-41 -165h-427v28z" />
    <glyph glyph-name="braceleft" unicode="{" horiz-adv-x="245" 
d="M73 386v193q0 43 27 61q32 21 111 21v-27q-25 0 -38 -13q-17 -17 -17 -56v-193q0 -47 -19 -69q-14 -15 -50 -27q38 -13 50 -27q19 -22 19 -70v-193q0 -38 17 -55q14 -14 38 -14v-27q-79 0 -108.5 19t-29.5 63v193q0 57 -19 81q-14 18 -50 30q37 12 50 28q19 24 19 82z
" />
    <glyph glyph-name="bar" unicode="|" horiz-adv-x="89" 
d="M4 661h55v-661h-55v661z" />
    <glyph glyph-name="braceright" unicode="}" horiz-adv-x="245" 
d="M146 386q0 -58 18 -81q13 -17 51 -29q-37 -12 -50 -29q-19 -25 -19 -82v-193q0 -43 -29.5 -62.5t-108.5 -19.5v27q25 0 38 13q17 17 17 56v193q0 47 19 69q14 16 50 28q-36 11 -50 27q-19 21 -19 69v193q0 38 -15.5 53.5t-39.5 15.5v27q79 0 108.5 -19t29.5 -63v-193z
" />
    <glyph glyph-name="asciitilde" unicode="~" horiz-adv-x="463" 
d="M12 179q24 40 47 60q31 27 67 27q21 0 42.5 -7t48.5 -24t50 -26.5t40 -9.5q52 0 77 63l41 -42q-24 -40 -48 -61q-31 -27 -68 -27q-35 0 -89 33.5t-92 33.5q-50 0 -75 -61z" />
    <glyph glyph-name="nonbreakingspace" unicode="&#xa0;" horiz-adv-x="500" 
 />
    <glyph glyph-name="exclamdown" unicode="&#xa1;" horiz-adv-x="794" 
d="M12 -124v69h744v-69h-744z" />
    <glyph glyph-name="cent" unicode="&#xa2;" horiz-adv-x="668" 
d="M4 152v82h634v-82h-634z" />
    <glyph glyph-name="sterling" unicode="&#xa3;" horiz-adv-x="390" 
d="M130 486q-44 39 -64 69q-27 40 -27 79q0 50 39.5 80t98.5 30q52 0 90 -32q34 -29 34 -58v-6q-4 -21 -24 -35.5t-41 -14.5q-36 0 -45 36q-4 14 -4 18q0 21 14 36t31 15q-14 8 -28 11t-29 3q-30 0 -51.5 -19.5t-21.5 -45.5q0 -21 16.5 -43t46.5 -38q79 -45 122 -88
q69 -68 69 -139q0 -44 -31 -72t-89 -28q22 -13 44 -40q35 -44 35 -94q0 -58 -50 -93q-44 -31 -102 -31q-51 0 -87.5 28.5t-36.5 68.5q0 29 16 43t39 14t39.5 -12t16.5 -32q0 -27 -13 -41t-27 -14l-2 2q21 -31 55 -31q14 0 28 5t24 13q29 21 29 49q0 24 -24 53q-58 51 -68 61
q-68 49 -98 84q-48 55 -48 111q0 8 2 18.5t4 20.5q7 30 30 44.5t58 14.5h30zM215 421q-22 20 -49 34t-50 14q-26 0 -43 -20q-4 -6 -8 -14.5t-4 -15.5q0 -25 26 -57q19 -23 43 -41q40 -29 57 -39q30 -18 49 -18q20 0 34.5 14.5t14.5 36.5q0 24 -18.5 53t-51.5 53z" />
    <glyph glyph-name="currency" unicode="&#xa4;" horiz-adv-x="369" 
d="M128 83v220q0 29 -6 38q-11 17 -49 17v28q51 0 84.5 9.5t66.5 31.5v-344q0 -32 14 -43.5t55 -11.5v-28h-234v28q42 0 55.5 11.5t13.5 43.5zM4 524q0 32 18.5 50.5t50.5 18.5q31 0 50 -19t19 -50t-19 -50t-50 -19q-32 0 -50.5 18.5t-18.5 50.5zM197 524q0 32 18.5 50.5
t50.5 18.5q31 0 50 -19t19 -50t-19 -50t-50 -19q-32 0 -50.5 18.5t-18.5 50.5z" />
    <glyph glyph-name="yen" unicode="&#xa5;" horiz-adv-x="380" 
d="M246 96q0 -43 15.5 -55.5t67.5 -12.5v-28h-303v28q50 0 66 13t16 55v469q0 42 -15.5 55.5t-66.5 13.5v27h303v-27q-50 0 -66.5 -13.5t-16.5 -55.5v-469zM12 758q0 32 18.5 50.5t50.5 18.5q31 0 50 -19t19 -50t-19 -50t-50 -19t-50 19t-19 50zM205 758q0 32 18.5 50.5
t50.5 18.5q31 0 50 -19t19 -50t-19 -50t-50 -19t-50 19t-19 50z" />
    <glyph glyph-name="brokenbar" unicode="&#xa6;" horiz-adv-x="575" 
d="M280 593q4 18 20.5 28.5t34.5 10.5q13 0 22 -5.5t9 -16.5l-4 -17l-69 -124q-17 -30 -33 -30q-10 0 -10 16l2 12zM376 55q-28 -32 -67 -48.5t-83 -16.5q-64 0 -106 36q-47 40 -47 112v179q0 32 -13.5 43.5t-55.5 11.5v28h234v-28q-40 0 -54.5 -12t-14.5 -43v-179
q0 -52 28 -81q25 -26 63 -26q30 0 61 14t55 38v234q0 32 -13.5 43.5t-55.5 11.5v28h234v-28q-40 0 -54.5 -12t-14.5 -43v-221q0 -27 7 -38q11 -17 49 -17v-27l-152 -28v69z" />
    <glyph glyph-name="section" unicode="&#xa7;" horiz-adv-x="493" 
d="M252 593q4 18 20 28.5t35 10.5q14 0 23 -5.5t9 -16.5l-4 -17l-69 -124q-17 -30 -34 -30q-10 0 -10 16l2 12zM307 262q0 61 -31.5 92.5t-76.5 31.5h-16q-31 0 -58 -43.5t-27 -106.5l2 -16q0 -89 45 -139q38 -42 89 -42q20 0 40 8.5t33 21.5v193zM404 96q0 -29 6 -38
q11 -17 49 -17v-27l-152 -28v55q-20 -26 -52.5 -40.5t-71.5 -14.5q-70 0 -120 45q-59 53 -59 148l-2 16q0 93 48 152q54 66 147 66q60 0 96 -15q27 -13 55 -26l56 41v-317z" />
    <glyph glyph-name="dieresis" unicode="&#xa8;" horiz-adv-x="546" 
d="M232 -110q-12 -32 -38 -48q-21 -13 -48 -13t-46 13.5t-19 33.5q0 25 15 40t38 15q10 0 22.5 -4t22.5 -10q1 -1 8 -2q12 0 25.5 20.5t29.5 60.5l-148 321q-16 34 -27 43q-15 12 -55 12v28h234v-28q-47 0 -47 -29q0 -3 2 -11t4 -15l92 -201l91 201l4 20q0 16 -18.5 25.5
t-44.5 9.5v28h179v-28q-37 0 -57 -17q-11 -10 -26 -38zM222 500q9 -18 36 -18q26 0 35 18q-8 12 -8 24l2 13q0 56 56 56q55 0 55 -56q0 -26 -27 -44q-36 -24 -111 -24q-73 0 -110 24q-28 18 -28 44q0 56 55 56t55 -56q0 -10 -2.5 -20t-7.5 -17z" />
    <glyph glyph-name="copyright" unicode="&#xa9;" horiz-adv-x="680" 
d="M587 0h-579v28q51 0 67 13t16 55v469q0 42 -15.5 55.5t-67.5 13.5v27h468q16 0 30.5 7.5t24.5 20.5h28l61 -213l-20 -7q-43 70 -87 108q-66 57 -147 57h-138v-276h69q78 0 124 43q42 39 42 95h27v-317h-27q0 66 -41 107q-45 45 -125 45h-69v-303h166q80 0 146 56
q46 39 88 109l20 -8zM146 758q0 32 18.5 50.5t50.5 18.5q30 0 49 -19t19 -50t-18 -50t-50 -19q-31 0 -50 19t-19 50zM339 758q0 31 18 50t50 19q31 0 50 -19t19 -50q0 -32 -18.5 -50.5t-50.5 -18.5q-30 0 -49 19t-19 50z" />
    <glyph glyph-name="ordfeminine" unicode="&#xaa;" horiz-adv-x="432" 
d="M297 276v9q0 40 -26.5 70.5t-59.5 30.5h-10q-43 -5 -62 -19q-35 -26 -35 -91h193zM215 413q74 0 126.5 -46.5t52.5 -112.5v-20h-290q0 -81 44 -132q40 -47 94 -47q42 0 80 21.5t58 61.5l14 -14q-20 -70 -69.5 -104t-123.5 -34q-81 0 -134 51q-59 57 -59 156q0 94 58 157
t149 63zM35 524q0 31 19 50t50 19t50 -19t19 -50q0 -32 -18.5 -50.5t-50.5 -18.5t-50.5 18.5t-18.5 50.5zM228 524q0 31 19 50t50 19t50 -19t19 -50q0 -32 -18.5 -50.5t-50.5 -18.5t-50.5 18.5t-18.5 50.5z" />
    <glyph glyph-name="guillemotleft" unicode="&#xab;" horiz-adv-x="276" 
d="M77 83v220q0 29 -6 38q-11 17 -49 17v28q51 0 84.5 9.5t66.5 31.5v-344q0 -32 14 -43.5t55 -11.5v-28h-234v28q42 0 55.5 11.5t13.5 43.5zM35 524q0 31 19 50t50 19t50 -19t19 -50q0 -32 -18.5 -50.5t-50.5 -18.5t-50.5 18.5t-18.5 50.5z" />
    <glyph glyph-name="logicalnot" unicode="&#xac;" horiz-adv-x="337" 
d="M224 96q0 -43 15.5 -55.5t67.5 -12.5v-28h-303v28q51 0 67 13t16 55v469q0 42 -15.5 55.5t-67.5 13.5v27h303v-27q-50 0 -66.5 -13.5t-16.5 -55.5v-469zM87 758q0 32 18.5 50.5t50.5 18.5q30 0 49 -19t19 -50t-18 -50t-50 -19q-31 0 -50 19t-19 50z" />
    <glyph glyph-name="minus" unicode="&#xad;" horiz-adv-x="400" 
d="M8 152v82h358v-82h-358z" />
    <glyph glyph-name="registered" unicode="&#xae;" horiz-adv-x="432" 
d="M104 234h124v-27h-122q0 -85 40 -129q34 -37 82 -37q51 0 84 30t54 94h28q-10 -102 -89 -148q-53 -31 -118 -31q-72 0 -121 44q-58 52 -58 149l-2 12q0 91 54.5 156.5t140.5 65.5q69 0 128 -34.5t59 -75.5q0 -18 -7.5 -27.5t-19.5 -16.5t-24 -7q-21 0 -37.5 17.5
t-16.5 47.5q0 21 -26.5 45t-55.5 24q-46 0 -69 -29q-28 -36 -28 -123z" />
    <glyph glyph-name="macron" unicode="&#xaf;" horiz-adv-x="1059" 
d="M358 579q20 0 59 21q52 28 79 75h55l-386 -689h-55l337 599q-30 -22 -54 -33t-47 -11q-6 0 -16 2.5t-13 3.5v-10q0 -23 -7.5 -51t-20.5 -59q-20 -50 -66 -83t-97 -33q-18 0 -34 4.5t-39.5 16.5t-37 41t-13.5 68q0 30 11 64t28 60q35 47 84 70q40 19 80 19q10 0 21.5 -2
t21.5 -4q33 -13 49 -45q13 -26 40 -26zM222 622q-51 0 -98 -72.5t-47 -138.5q0 -48 33 -67q9 -3 16.5 -5t13.5 -2q32 0 63 24q36 28 59 80q13 31 19 60t6 48v18q-19 7 -37.5 22.5t-27.5 32.5zM606 110q13 30 19.5 59t6.5 48q0 30 -10.5 47.5t-28.5 24.5q-4 1 -12.5 1.5
t-11.5 0.5q-51 0 -98.5 -72t-47.5 -138q0 -48 32 -67q6 -3 14.5 -5.5t14.5 -2.5q32 0 63 24q37 29 59 80zM386 234q35 47 82 70q39 19 79 19q10 0 24.5 -2.5t21.5 -3.5q33 -11 49.5 -40t16.5 -68q0 -54 -25 -113q-21 -50 -67 -82t-97 -32q-35 0 -70 18q-25 13 -39.5 43.5
t-14.5 66.5q0 69 40 124zM978 110q13 30 19.5 59t6.5 48q0 30 -10.5 47.5t-28.5 24.5q-4 1 -12.5 1.5t-11.5 0.5q-51 0 -98.5 -72t-47.5 -138q0 -48 32 -67q6 -3 14.5 -5.5t14.5 -2.5q32 0 63 24q37 29 59 80zM758 234q35 47 82 70q39 19 79 19q10 0 24.5 -2.5t21.5 -3.5
q33 -11 49.5 -40t16.5 -68q0 -54 -25 -113q-21 -50 -67 -82t-96 -32q-36 0 -71 18q-26 13 -39.5 42.5t-13.5 67.5q0 34 10 66t29 58z" />
    <glyph glyph-name="plusminus" unicode="&#xb1;" horiz-adv-x="369" 
d="M260 551q36 -4 55.5 -25.5t19.5 -47.5q0 -19 -12.5 -38t-35.5 -27q-9 -2 -17.5 -4t-9.5 -2q-28 0 -48.5 21.5t-20.5 53.5q0 76 37 130q29 43 79 69l14 -20q-29 -15 -50 -46.5t-21 -51.5q0 -12 10 -12zM81 551q36 -4 55.5 -25.5t19.5 -47.5q0 -19 -12.5 -38t-35.5 -27
q-8 -2 -16.5 -4t-10.5 -2q-28 0 -48.5 21.5t-20.5 53.5q0 76 37 130q29 43 79 69l14 -20q-29 -14 -50 -46t-21 -52q0 -12 10 -12z" />
    <glyph glyph-name="twosuperior" unicode="&#xb2;" horiz-adv-x="359" 
d="M81 537q-37 4 -57 24.5t-20 46.5q0 20 13 39t36 28l26 4q28 0 49.5 -20.5t21.5 -52.5q0 -75 -37 -129q-29 -43 -80 -70l-13 20q30 16 49.5 46t19.5 51q0 13 -8 13zM260 537q-37 4 -57 24.5t-20 46.5q0 20 13 39t36 28l26 4q28 0 49.5 -20.5t21.5 -52.5q0 -75 -37 -129
q-29 -43 -79 -70l-14 20q30 16 49.5 46t19.5 51q0 13 -8 13z" />
    <glyph glyph-name="threesuperior" unicode="&#xb3;" horiz-adv-x="359" 
d="M81 -14q-37 4 -57 24.5t-20 46.5q0 20 13 39t36 28l26 4q28 0 49.5 -20.5t21.5 -52.5q0 -75 -37 -129q-29 -43 -80 -70l-13 20q29 16 49 46.5t20 51.5q0 12 -8 12zM260 -14q-37 4 -57 24.5t-20 46.5q0 20 13 39t36 28l26 4q28 0 49.5 -20.5t21.5 -52.5q0 -75 -37 -129
q-29 -43 -79 -70l-14 20q29 16 49 46.5t20 51.5q0 12 -8 12z" />
    <glyph glyph-name="acute" unicode="&#xb4;" horiz-adv-x="225" 
d="M108 193l69 -97q12 -20 12 -37q0 -12 -8 -12q-11 0 -31 22l-138 124l138 124q8 9 17 13.5t14 4.5q10 0 10 -10q0 -5 -4.5 -16t-9.5 -20z" />
    <glyph glyph-name="mu" unicode="&#xb5;" horiz-adv-x="225" 
d="M91 193l-69 96q-2 3 -9 16.5t-7 19.5q0 10 10 10q7 0 14.5 -3.5t18.5 -14.5l138 -124l-138 -124q-22 -22 -33 -22q-10 0 -10 12q0 5 5 16.5t11 20.5z" />
    <glyph glyph-name="paragraph" unicode="&#xb6;" horiz-adv-x="369" 
d="M83 193l-69 96q-14 25 -14 36q0 10 8 10q7 0 15 -3.5t18 -14.5l124 -124l-124 -124q-9 -9 -18.5 -15.5t-14.5 -6.5q-8 0 -8 12q0 5 4.5 16.5t9.5 20.5zM234 193l-69 96q-5 8 -10 19.5t-5 16.5q0 10 9 10q7 0 15 -3.5t19 -14.5l138 -124l-138 -124q-22 -22 -34 -22
q-3 2 -4 3q-5 5 -5 9q0 6 4 15.5t11 21.5z" />
    <glyph glyph-name="periodcentered" unicode="&#xb7;" horiz-adv-x="369" 
d="M83 193l-69 96q-14 25 -14 36q0 10 8 10q7 0 15 -3.5t18 -14.5l124 -124l-124 -124q-9 -9 -18.5 -15.5t-14.5 -6.5q-8 0 -8 12q0 5 4.5 16.5t9.5 20.5zM234 193l-69 96q-5 8 -10 19.5t-5 16.5q0 10 9 10q7 0 15 -3.5t19 -14.5l138 -124l-138 -124q-22 -22 -34 -22
q-3 2 -4 3q-5 5 -5 9q0 6 4 15.5t11 21.5z" />
    <glyph glyph-name="periodcentered" unicode="&#x2219;" horiz-adv-x="369" 
d="M83 193l-69 96q-14 25 -14 36q0 10 8 10q7 0 15 -3.5t18 -14.5l124 -124l-124 -124q-9 -9 -18.5 -15.5t-14.5 -6.5q-8 0 -8 12q0 5 4.5 16.5t9.5 20.5zM234 193l-69 96q-5 8 -10 19.5t-5 16.5q0 10 9 10q7 0 15 -3.5t19 -14.5l138 -124l-138 -124q-22 -22 -34 -22
q-3 2 -4 3q-5 5 -5 9q0 6 4 15.5t11 21.5z" />
    <glyph glyph-name="cedilla" unicode="&#xb8;" horiz-adv-x="400" 
d="M8 152v82h358v-82h-358zM118 331q0 31 19 50t50 19t50 -19t19 -50t-19 -50t-50 -19q-32 0 -50.5 18.5t-18.5 50.5zM118 55q0 31 19 50t50 19t50 -19t19 -50t-19 -50t-50 -19t-50 19t-19 50z" />
    <glyph glyph-name="onesuperior" unicode="&#xb9;" horiz-adv-x="357" 
d="M2 317l47 49l116 -116l116 116l48 -49l-116 -116l116 -114l-48 -48l-116 117l-116 -117l-47 48l116 114z" />
    <glyph glyph-name="ordmasculine" unicode="&#xba;" horiz-adv-x="711" 
d="M274 55q0 32 18.5 50.5t50.5 18.5q30 0 49 -19t19 -50t-18 -50t-50 -19q-31 0 -50 19t-19 50zM12 55q0 32 18.5 50.5t50.5 18.5q31 0 50 -19t19 -50t-19 -50t-50 -19t-50 19t-19 50zM673 55q0 -32 -18.5 -50.5t-50.5 -18.5q-31 0 -50 19t-19 50t19 50t50 19t50 -19
t19 -50z" />
    <glyph glyph-name="guillemotright" unicode="&#xbb;" horiz-adv-x="254" 
d="M114 344q44 0 77 -30t33 -80t-33 -80t-77 -30t-77 30t-33 80t33 80t77 30z" />
    <glyph glyph-name="onequarter" unicode="&#xbc;" horiz-adv-x="483" 
d="M4 482q0 77 41 126q45 53 124 53h276v-27q-40 0 -54.5 -12t-14.5 -43v-648h-69v703h-69v-703h-69v372q-79 0 -124 53q-41 49 -41 126z" />
    <glyph glyph-name="onehalf" unicode="&#xbd;" horiz-adv-x="711" 
d="M343 606q-119 0 -200 -92q-76 -86 -76 -197q0 -110 75 -196q81 -93 201 -93q118 0 199 92q76 87 76 197t-75 196q-81 93 -200 93zM343 648q144 0 237 -93t93 -238t-93 -238t-237 -93q-145 0 -238 93t-93 238t93 238t238 93zM343 138q-84 0 -132 50t-48 143
q0 90 51.5 141.5t128.5 51.5q20 0 38 -7.5t30 -20.5l6 -2q7 0 12.5 9t9.5 21h14v-138h-14q-10 57 -38 89.5t-58 32.5q-39 0 -66 -42q-31 -48 -31 -135t32 -136q28 -43 65 -43q33 0 60 32.5t36 91.5h14v-138h-14q0 21 -16 21q-12 0 -25 -7q-25 -14 -55 -14z" />
    <glyph glyph-name="threequarters" unicode="&#xbe;" horiz-adv-x="711" 
d="M343 606q-119 0 -200 -92q-76 -86 -76 -197q0 -110 75 -196q81 -93 201 -93q118 0 199 92q76 87 76 197t-75 196q-81 93 -200 93zM343 648q144 0 237 -93t93 -238t-93 -238t-237 -93q-145 0 -238 93t-93 238t93 238t238 93zM398 331q10 -7 15.5 -12.5t11.5 -15.5l55 -118
q13 -19 20 -24q12 -9 35 -9v-14h-110l-55 151q-9 26 -32 36q-14 6 -37 6v-138q0 -41 42 -41v-14h-152v14q41 0 41 41v262q0 41 -41 41v14h165q67 0 98 -28q26 -23 26 -63q0 -34 -25 -61t-57 -27zM301 344h42q31 0 49.5 19.5t18.5 55.5t-23.5 56.5t-66.5 20.5h-20v-152z" />
    <glyph glyph-name="questiondown" unicode="&#xbf;" horiz-adv-x="524" 
d="M211 386v-55h-14q0 41 -69 41v-110q0 -21 3.5 -24.5t24.5 -3.5v-14h-97v14q21 0 24.5 3.5t3.5 24.5v110q-69 0 -69 -41h-14v55h207zM419 386h67v-14q-20 0 -23.5 -3.5t-3.5 -24.5v-82q0 -20 4 -24t23 -4v-14h-96v14q20 0 23.5 3.5t3.5 24.5v96l-61 -138h-12l-64 124v-82
q0 -21 3.5 -24.5t23.5 -3.5v-14h-69v14q21 0 24.5 3.5t3.5 24.5v82q0 21 -3.5 24.5t-24.5 3.5v14h69l63 -110z" />
    <glyph glyph-name="Agrave" unicode="&#xc0;" 
d="M331 551q-8 10 -12 14q-14 14 -26 14q23 11 51.5 36.5t39 47.5t18.5 22q12 0 21 -24l270 -565q20 -42 38 -55t58 -13v-28h-303v28q41 0 56 4.5t15 18.5q0 15 -16 45l-45 97h-293l-47 -97q-8 -14 -8 -27q0 -41 76 -41v-28h-220v28q42 0 66 13.5t44 54.5zM222 234h252
l-126 262z" />
    <glyph glyph-name="Agrave" unicode="&#x410;" 
d="M331 551q-8 10 -12 14q-14 14 -26 14q23 11 51.5 36.5t39 47.5t18.5 22q12 0 21 -24l270 -565q20 -42 38 -55t58 -13v-28h-303v28q41 0 56 4.5t15 18.5q0 15 -16 45l-45 97h-293l-47 -97q-8 -14 -8 -27q0 -41 76 -41v-28h-220v28q42 0 66 13.5t44 54.5zM222 234h252
l-126 262z" />
    <glyph glyph-name="Aacute" unicode="&#xc1;" horiz-adv-x="638" 
d="M232 372h69q157 0 234 -55q69 -49 69 -138q0 -76 -42 -121q-55 -58 -178 -58h-372v28q52 0 67 13t15 55v469q0 42 -15.5 55.5t-66.5 13.5v27h413q16 0 30.5 7.5t24.5 20.5h28l61 -213l-20 -7q-43 70 -87 108q-66 57 -147 57q-50 0 -66.5 -11.5t-16.5 -43.5v-207zM301 344
h-69v-261q0 -32 14 -43.5t55 -11.5q87 0 129 44q37 38 37 107q0 92 -57 134q-42 31 -109 31z" />
    <glyph glyph-name="Aacute" unicode="&#x411;" horiz-adv-x="638" 
d="M232 372h69q157 0 234 -55q69 -49 69 -138q0 -76 -42 -121q-55 -58 -178 -58h-372v28q52 0 67 13t15 55v469q0 42 -15.5 55.5t-66.5 13.5v27h413q16 0 30.5 7.5t24.5 20.5h28l61 -213l-20 -7q-43 70 -87 108q-66 57 -147 57q-50 0 -66.5 -11.5t-16.5 -43.5v-207zM301 344
h-69v-261q0 -32 14 -43.5t55 -11.5q87 0 129 44q37 38 37 107q0 92 -57 134q-42 31 -109 31z" />
    <glyph glyph-name="Acircumflex" unicode="&#xc2;" horiz-adv-x="658" 
d="M321 372q66 0 98 41q26 33 26 83q0 76 -45 110q-37 28 -107 28q-40 0 -54.5 -12t-14.5 -43v-207h97zM224 344v-248q0 -40 21.5 -54t75.5 -14q86 0 128 44q37 39 37 107q0 93 -56 134q-42 31 -109 31h-97zM404 0h-400v28q51 0 67 13t16 55v469q0 42 -15.5 55.5t-67.5 13.5
v27h331q131 0 189.5 -38t58.5 -113q0 -64 -35 -100t-117 -52q107 -19 153 -71q40 -45 40 -122q0 -63 -42 -106q-58 -59 -178 -59z" />
    <glyph glyph-name="Acircumflex" unicode="&#x412;" horiz-adv-x="658" 
d="M321 372q66 0 98 41q26 33 26 83q0 76 -45 110q-37 28 -107 28q-40 0 -54.5 -12t-14.5 -43v-207h97zM224 344v-248q0 -40 21.5 -54t75.5 -14q86 0 128 44q37 39 37 107q0 93 -56 134q-42 31 -109 31h-97zM404 0h-400v28q51 0 67 13t16 55v469q0 42 -15.5 55.5t-67.5 13.5
v27h331q131 0 189.5 -38t58.5 -113q0 -64 -35 -100t-117 -52q107 -19 153 -71q40 -45 40 -122q0 -63 -42 -106q-58 -59 -178 -59z" />
    <glyph glyph-name="Atilde" unicode="&#xc3;" horiz-adv-x="595" 
d="M417 661q16 0 30.5 7.5t24.5 20.5h28l61 -213l-20 -7q-43 70 -87 108q-66 57 -147 57q-50 0 -66.5 -11.5t-16.5 -43.5v-483q0 -40 17 -54t66 -14v-28h-303v28q51 0 67 13t16 55v469q0 42 -15.5 55.5t-67.5 13.5v27h413z" />
    <glyph glyph-name="Atilde" unicode="&#x413;" horiz-adv-x="595" 
d="M417 661q16 0 30.5 7.5t24.5 20.5h28l61 -213l-20 -7q-43 70 -87 108q-66 57 -147 57q-50 0 -66.5 -11.5t-16.5 -43.5v-483q0 -40 17 -54t66 -14v-28h-303v28q51 0 67 13t16 55v469q0 42 -15.5 55.5t-67.5 13.5v27h413z" />
    <glyph glyph-name="Adieresis" unicode="&#xc4;" horiz-adv-x="731" 
d="M439 28v606h-248v-427q0 -72 -14 -118t-41 -61h303zM67 661h592v-27q-51 0 -66.5 -13.5t-15.5 -55.5v-469q0 -41 16 -54.5t66 -13.5h42v-166h-28q0 80 -31 109t-107 29h-358q-76 0 -107 -28.5t-31 -109.5h-27v166h55q38 3 62 56q21 45 21 95v386q0 42 -15.5 55.5
t-67.5 13.5v27z" />
    <glyph glyph-name="Adieresis" unicode="&#x414;" horiz-adv-x="731" 
d="M439 28v606h-248v-427q0 -72 -14 -118t-41 -61h303zM67 661h592v-27q-51 0 -66.5 -13.5t-15.5 -55.5v-469q0 -41 16 -54.5t66 -13.5h42v-166h-28q0 80 -31 109t-107 29h-358q-76 0 -107 -28.5t-31 -109.5h-27v166h55q38 3 62 56q21 45 21 95v386q0 42 -15.5 55.5
t-67.5 13.5v27z" />
    <glyph glyph-name="Aring" unicode="&#xc5;" horiz-adv-x="680" 
d="M587 0h-579v28q51 0 67 13t16 55v469q0 42 -15.5 55.5t-67.5 13.5v27h468q16 0 30.5 7.5t24.5 20.5h28l61 -213l-20 -7q-43 70 -87 108q-66 57 -147 57h-138v-276h69q78 0 124 43q42 39 42 95h27v-317h-27q0 66 -41 107q-45 45 -125 45h-69v-303h166q80 0 146 56
q46 39 88 109l20 -8z" />
    <glyph glyph-name="Aring" unicode="&#x415;" horiz-adv-x="680" 
d="M587 0h-579v28q51 0 67 13t16 55v469q0 42 -15.5 55.5t-67.5 13.5v27h468q16 0 30.5 7.5t24.5 20.5h28l61 -213l-20 -7q-43 70 -87 108q-66 57 -147 57h-138v-276h69q78 0 124 43q42 39 42 95h27v-317h-27q0 66 -41 107q-45 45 -125 45h-69v-303h166q80 0 146 56
q46 39 88 109l20 -8z" />
    <glyph glyph-name="AE" unicode="&#xc6;" horiz-adv-x="1124" 
d="M398 661h303v-27q-50 0 -66.5 -13.5t-16.5 -55.5v-244l193 244q9 13 14.5 25t5.5 18q0 26 -61 26v27h220v-27q-57 0 -85 -16q-21 -12 -51 -53l-130 -165l239 -317q29 -40 49 -47.5t75 -7.5v-28h-235l-206 303l-28 -35v-172q0 -43 15.5 -55.5t67.5 -12.5v-28h-303v28
q53 0 67.5 12t14.5 56v172l-27 35l-207 -303h-234v28q57 0 75 7t49 48l238 317l-130 165q-23 32 -36 43q-31 26 -100 26v27h221v-27q-34 0 -48.5 -7t-14.5 -19q0 -7 6 -18q2 -4 15 -25l193 -244v244q0 42 -16.5 55.5t-65.5 13.5v27z" />
    <glyph glyph-name="AE" unicode="&#x416;" horiz-adv-x="1124" 
d="M398 661h303v-27q-50 0 -66.5 -13.5t-16.5 -55.5v-244l193 244q9 13 14.5 25t5.5 18q0 26 -61 26v27h220v-27q-57 0 -85 -16q-21 -12 -51 -53l-130 -165l239 -317q29 -40 49 -47.5t75 -7.5v-28h-235l-206 303l-28 -35v-172q0 -43 15.5 -55.5t67.5 -12.5v-28h-303v28
q53 0 67.5 12t14.5 56v172l-27 35l-207 -303h-234v28q57 0 75 7t49 48l238 317l-130 165q-23 32 -36 43q-31 26 -100 26v27h221v-27q-34 0 -48.5 -7t-14.5 -19q0 -7 6 -18q2 -4 15 -25l193 -244v244q0 42 -16.5 55.5t-65.5 13.5v27z" />
    <glyph glyph-name="Ccedilla" unicode="&#xc7;" horiz-adv-x="648" 
d="M297 372q68 0 105 43q33 38 33 95q0 67 -41 105q-35 33 -83 33q-120 0 -178 -63q-36 -39 -70 -144h-28v220h28q12 -23 26 -23q3 0 12.5 3.5t16.5 6.5q35 17 82 22t111 5q119 0 190.5 -42.5t71.5 -122.5q0 -56 -34 -90q-38 -38 -118 -48q109 -29 153 -76q40 -43 40 -117
q0 -109 -110 -158q-78 -35 -193 -35h-30q-38 0 -79.5 6t-83.5 22q-15 5 -25 8q-20 6 -30 6q-28 0 -28 -42h-27v234h27q19 -101 117 -159q79 -47 159 -47q94 0 134 51q31 40 31 114q0 92 -63 134q-47 31 -116 31h-96v28h96z" />
    <glyph glyph-name="Ccedilla" unicode="&#x417;" horiz-adv-x="648" 
d="M297 372q68 0 105 43q33 38 33 95q0 67 -41 105q-35 33 -83 33q-120 0 -178 -63q-36 -39 -70 -144h-28v220h28q12 -23 26 -23q3 0 12.5 3.5t16.5 6.5q35 17 82 22t111 5q119 0 190.5 -42.5t71.5 -122.5q0 -56 -34 -90q-38 -38 -118 -48q109 -29 153 -76q40 -43 40 -117
q0 -109 -110 -158q-78 -35 -193 -35h-30q-38 0 -79.5 6t-83.5 22q-15 5 -25 8q-20 6 -30 6q-28 0 -28 -42h-27v234h27q19 -101 117 -159q79 -47 159 -47q94 0 134 51q31 40 31 114q0 92 -63 134q-47 31 -116 31h-96v28h96z" />
    <glyph glyph-name="Egrave" unicode="&#xc8;" 
d="M573 565q0 42 -15.5 55.5t-67.5 13.5v27h303v-27q-52 0 -67 -13t-15 -56v-469q0 -41 15.5 -54.5t66.5 -13.5v-28h-303v28q51 0 67 13t16 55v420l-345 -420q0 -43 15.5 -55.5t67.5 -12.5v-28h-303v28q51 0 67 13t16 55v469q0 42 -15.5 55.5t-67.5 13.5v27h303v-27
q-50 0 -66.5 -13.5t-16.5 -55.5v-421z" />
    <glyph glyph-name="Egrave" unicode="&#x418;" 
d="M573 565q0 42 -15.5 55.5t-67.5 13.5v27h303v-27q-52 0 -67 -13t-15 -56v-469q0 -41 15.5 -54.5t66.5 -13.5v-28h-303v28q51 0 67 13t16 55v420l-345 -420q0 -43 15.5 -55.5t67.5 -12.5v-28h-303v28q51 0 67 13t16 55v469q0 42 -15.5 55.5t-67.5 13.5v27h303v-27
q-50 0 -66.5 -13.5t-16.5 -55.5v-421z" />
    <glyph glyph-name="Eacute" unicode="&#xc9;" 
d="M573 565q0 42 -15.5 55.5t-67.5 13.5v27h303v-27q-52 0 -67 -13t-15 -56v-469q0 -41 15.5 -54.5t66.5 -13.5v-28h-303v28q51 0 67 13t16 55v420l-345 -420q0 -43 15.5 -55.5t67.5 -12.5v-28h-303v28q51 0 67 13t16 55v469q0 42 -15.5 55.5t-67.5 13.5v27h303v-27
q-50 0 -66.5 -13.5t-16.5 -55.5v-421zM352 717q4 -10 16.5 -16t25.5 -6q14 0 25 5.5t16 16.5q-7 10 -10.5 18.5t-3.5 22.5q0 31 19 50t50 19t50 -19t19 -50q0 -35 -36 -57q-43 -26 -129 -26t-129 26q-37 22 -37 57q0 31 19 50t50 19t50 -19t19 -50q0 -12 -3.5 -22t-10.5 -19
z" />
    <glyph glyph-name="Eacute" unicode="&#x419;" 
d="M573 565q0 42 -15.5 55.5t-67.5 13.5v27h303v-27q-52 0 -67 -13t-15 -56v-469q0 -41 15.5 -54.5t66.5 -13.5v-28h-303v28q51 0 67 13t16 55v420l-345 -420q0 -43 15.5 -55.5t67.5 -12.5v-28h-303v28q51 0 67 13t16 55v469q0 42 -15.5 55.5t-67.5 13.5v27h303v-27
q-50 0 -66.5 -13.5t-16.5 -55.5v-421zM352 717q4 -10 16.5 -16t25.5 -6q14 0 25 5.5t16 16.5q-7 10 -10.5 18.5t-3.5 22.5q0 31 19 50t50 19t50 -19t19 -50q0 -35 -36 -57q-43 -26 -129 -26t-129 26q-37 22 -37 57q0 31 19 50t50 19t50 -19t19 -50q0 -12 -3.5 -22t-10.5 -19
z" />
    <glyph glyph-name="Ecircumflex" unicode="&#xca;" horiz-adv-x="741" 
d="M266 303l-42 -55v-152q0 -43 15.5 -55.5t67.5 -12.5v-28h-303v28q51 0 67 13t16 55v469q0 42 -15.5 55.5t-67.5 13.5v27h303v-27q-50 0 -66.5 -13.5t-16.5 -55.5v-262l207 262q9 13 14.5 25t5.5 18q0 26 -61 26v27h220v-27q-57 0 -85 -16q-21 -12 -51 -53l-130 -165
l239 -317q29 -40 49 -47.5t75 -7.5v-28h-235z" />
    <glyph glyph-name="Ecircumflex" unicode="&#x41a;" horiz-adv-x="741" 
d="M266 303l-42 -55v-152q0 -43 15.5 -55.5t67.5 -12.5v-28h-303v28q51 0 67 13t16 55v469q0 42 -15.5 55.5t-67.5 13.5v27h303v-27q-50 0 -66.5 -13.5t-16.5 -55.5v-262l207 262q9 13 14.5 25t5.5 18q0 26 -61 26v27h220v-27q-57 0 -85 -16q-21 -12 -51 -53l-130 -165
l239 -317q29 -40 49 -47.5t75 -7.5v-28h-235z" />
    <glyph glyph-name="Edieresis" unicode="&#xcb;" horiz-adv-x="813" 
d="M274 179v386q0 42 -15.5 55.5t-67.5 13.5v27h592v-27q-51 0 -66.5 -13.5t-15.5 -55.5v-469q0 -41 16 -54.5t66 -13.5v-28h-303v28q51 0 67 13t16 55v538h-248v-427q0 -86 -19 -135q-26 -67 -91 -86q-7 -2 -16 -3t-28 -1q-22 0 -44 5t-50 13q-25 9 -46 40.5t-21 61.5
q0 23 13 40t40 23l16 2q32 0 49.5 -34t17.5 -92q14 -29 45 -29q35 0 61 38q32 46 32 129z" />
    <glyph glyph-name="Edieresis" unicode="&#x41b;" horiz-adv-x="813" 
d="M274 179v386q0 42 -15.5 55.5t-67.5 13.5v27h592v-27q-51 0 -66.5 -13.5t-15.5 -55.5v-469q0 -41 16 -54.5t66 -13.5v-28h-303v28q51 0 67 13t16 55v538h-248v-427q0 -86 -19 -135q-26 -67 -91 -86q-7 -2 -16 -3t-28 -1q-22 0 -44 5t-50 13q-25 9 -46 40.5t-21 61.5
q0 23 13 40t40 23l16 2q32 0 49.5 -34t17.5 -92q14 -29 45 -29q35 0 61 38q32 46 32 129z" />
    <glyph glyph-name="Igrave" unicode="&#xcc;" horiz-adv-x="886" 
d="M246 661l189 -462l183 462h234v-27q-52 0 -67 -13t-15 -56v-469q0 -41 15.5 -54.5t66.5 -13.5v-28h-303v28q51 0 67 13t16 55v497l-234 -593h-28l-234 577v-481q0 -41 16 -54.5t67 -13.5v-28h-207v28q52 0 67 13t15 55v469q0 42 -15.5 55.5t-66.5 13.5v27h234z" />
    <glyph glyph-name="Igrave" unicode="&#x41c;" horiz-adv-x="886" 
d="M246 661l189 -462l183 462h234v-27q-52 0 -67 -13t-15 -56v-469q0 -41 15.5 -54.5t66.5 -13.5v-28h-303v28q51 0 67 13t16 55v497l-234 -593h-28l-234 577v-481q0 -41 16 -54.5t67 -13.5v-28h-207v28q52 0 67 13t15 55v469q0 42 -15.5 55.5t-66.5 13.5v27h234z" />
    <glyph glyph-name="Iacute" unicode="&#xcd;" 
d="M573 372v193q0 42 -15.5 55.5t-67.5 13.5v27h303v-27q-52 0 -67 -13t-15 -56v-469q0 -41 15.5 -54.5t66.5 -13.5v-28h-303v28q51 0 67 13t16 55v235h-345v-235q0 -43 15.5 -55.5t67.5 -12.5v-28h-303v28q51 0 67 13t16 55v469q0 42 -15.5 55.5t-67.5 13.5v27h303v-27
q-50 0 -66.5 -13.5t-16.5 -55.5v-193h345z" />
    <glyph glyph-name="Iacute" unicode="&#x41d;" 
d="M573 372v193q0 42 -15.5 55.5t-67.5 13.5v27h303v-27q-52 0 -67 -13t-15 -56v-469q0 -41 15.5 -54.5t66.5 -13.5v-28h-303v28q51 0 67 13t16 55v235h-345v-235q0 -43 15.5 -55.5t67.5 -12.5v-28h-303v28q51 0 67 13t16 55v469q0 42 -15.5 55.5t-67.5 13.5v27h303v-27
q-50 0 -66.5 -13.5t-16.5 -55.5v-193h345z" />
    <glyph glyph-name="Icircumflex" unicode="&#xce;" horiz-adv-x="711" 
d="M535 331q0 155 -60 241q-53 76 -132 76q-80 0 -133 -76q-60 -86 -60 -241t60 -241q53 -76 133 -76t132 75q60 86 60 242zM343 -14q-134 0 -228 89q-103 97 -103 256q0 157 103 254q95 90 228 90t227 -89q103 -97 103 -255q0 -157 -103 -255q-95 -90 -227 -90z" />
    <glyph glyph-name="Icircumflex" unicode="&#x41e;" horiz-adv-x="711" 
d="M535 331q0 155 -60 241q-53 76 -132 76q-80 0 -133 -76q-60 -86 -60 -241t60 -241q53 -76 133 -76t132 75q60 86 60 242zM343 -14q-134 0 -228 89q-103 97 -103 256q0 157 103 254q95 90 228 90t227 -89q103 -97 103 -255q0 -157 -103 -255q-95 -90 -227 -90z" />
    <glyph glyph-name="Idieresis" unicode="&#xcf;" 
d="M573 634h-345v-538q0 -43 15.5 -55.5t67.5 -12.5v-28h-303v28q51 0 67 13t16 55v469q0 42 -15.5 55.5t-67.5 13.5v27h785v-27q-52 0 -67 -13t-15 -56v-469q0 -41 15.5 -54.5t66.5 -13.5v-28h-303v28q51 0 67 13t16 55v538z" />
    <glyph glyph-name="Idieresis" unicode="&#x41f;" 
d="M573 634h-345v-538q0 -43 15.5 -55.5t67.5 -12.5v-28h-303v28q51 0 67 13t16 55v469q0 42 -15.5 55.5t-67.5 13.5v27h785v-27q-52 0 -67 -13t-15 -56v-469q0 -41 15.5 -54.5t66.5 -13.5v-28h-303v28q51 0 67 13t16 55v538z" />
    <glyph glyph-name="Eth" unicode="&#xd0;" horiz-adv-x="638" 
d="M301 634q-40 0 -54.5 -12t-14.5 -43v-221l59 -4q83 0 127 32q49 36 49 110q0 72 -41 105t-125 33zM356 661q116 0 182 -39.5t66 -111.5q0 -83 -67 -131t-181 -48h-124v-235q0 -43 15.5 -55.5t67.5 -12.5v-28h-303v28q52 0 67 13t15 55v469q0 42 -15.5 55.5t-66.5 13.5v27
h344z" />
    <glyph glyph-name="Eth" unicode="&#x420;" horiz-adv-x="638" 
d="M301 634q-40 0 -54.5 -12t-14.5 -43v-221l59 -4q83 0 127 32q49 36 49 110q0 72 -41 105t-125 33zM356 661q116 0 182 -39.5t66 -111.5q0 -83 -67 -131t-181 -48h-124v-235q0 -43 15.5 -55.5t67.5 -12.5v-28h-303v28q52 0 67 13t15 55v469q0 42 -15.5 55.5t-66.5 13.5v27
h344z" />
    <glyph glyph-name="Ntilde" unicode="&#xd1;" horiz-adv-x="597" 
d="M343 -14q-134 0 -228 89q-103 97 -103 256q0 157 103 254q95 90 228 90q37 0 71 -6.5t66 -20.5l17.5 -7t10.5 -3q16 0 27 23h28v-220h-28q-19 101 -77 157q-52 50 -115 50q-80 0 -133 -76q-60 -86 -60 -241t60 -241q53 -76 133 -76q63 0 115 50q59 57 77 156h28v-234h-28
q0 42 -25 42q-7 0 -18 -3.5t-28.5 -12t-54.5 -17.5t-66 -9z" />
    <glyph glyph-name="Ntilde" unicode="&#x421;" horiz-adv-x="597" 
d="M343 -14q-134 0 -228 89q-103 97 -103 256q0 157 103 254q95 90 228 90q37 0 71 -6.5t66 -20.5l17.5 -7t10.5 -3q16 0 27 23h28v-220h-28q-19 101 -77 157q-52 50 -115 50q-80 0 -133 -76q-60 -86 -60 -241t60 -241q53 -76 133 -76q63 0 115 50q59 57 77 156h28v-234h-28
q0 42 -25 42q-7 0 -18 -3.5t-28.5 -12t-54.5 -17.5t-66 -9z" />
    <glyph glyph-name="Ograve" unicode="&#xd2;" horiz-adv-x="770" 
d="M152 661h441q15 0 29.5 7.5t25.5 20.5h27l61 -213l-19 -7q-45 71 -88 108q-67 57 -147 57q-41 0 -41 -41v-497q0 -43 15.5 -55.5t67.5 -12.5v-28h-304v28q51 0 67 13t16 55v497q0 41 -41 41q-81 0 -146 -56q-45 -38 -88 -109l-20 7l61 213h27q25 -28 56 -28z" />
    <glyph glyph-name="Ograve" unicode="&#x422;" horiz-adv-x="770" 
d="M152 661h441q15 0 29.5 7.5t25.5 20.5h27l61 -213l-19 -7q-45 71 -88 108q-67 57 -147 57q-41 0 -41 -41v-497q0 -43 15.5 -55.5t67.5 -12.5v-28h-304v28q51 0 67 13t16 55v497q0 41 -41 41q-81 0 -146 -56q-45 -38 -88 -109l-20 7l61 213h27q25 -28 56 -28z" />
    <glyph glyph-name="Oacute" unicode="&#xd3;" horiz-adv-x="750" 
d="M128 565q-21 41 -46.5 55t-77.5 14v27h303v-27q-43 0 -43 -32q0 -5 5 -15.5t11 -21.5l135 -282l140 282q12 24 12 39q0 30 -67 30v27h220v-27q-52 0 -74 -13t-44 -56l-226 -455q-37 -69 -81 -100q-36 -26 -78 -26q-18 0 -35.5 4t-40.5 12.5t-44.5 40t-21.5 61.5
q0 23 13 40t40 23l20 2q28 0 46.5 -25t18.5 -67l-2 -34v-4q0 -6 5.5 -10.5t13.5 -4.5q16 0 34.5 12t32.5 35q28 45 28 67q0 21 -18 57z" />
    <glyph glyph-name="Oacute" unicode="&#x423;" horiz-adv-x="750" 
d="M128 565q-21 41 -46.5 55t-77.5 14v27h303v-27q-43 0 -43 -32q0 -5 5 -15.5t11 -21.5l135 -282l140 282q12 24 12 39q0 30 -67 30v27h220v-27q-52 0 -74 -13t-44 -56l-226 -455q-37 -69 -81 -100q-36 -26 -78 -26q-18 0 -35.5 4t-40.5 12.5t-44.5 40t-21.5 61.5
q0 23 13 40t40 23l20 2q28 0 46.5 -25t18.5 -67l-2 -34v-4q0 -6 5.5 -10.5t13.5 -4.5q16 0 34.5 12t32.5 35q28 45 28 67q0 21 -18 57z" />
    <glyph glyph-name="Ocircumflex" unicode="&#xd4;" horiz-adv-x="876" 
d="M535 537q-25 0 -33 -4t-8 -23v-331q0 -22 12.5 -24.5t28.5 -2.5q88 0 129 54q37 49 37 138q0 90 -36 138q-41 55 -130 55zM315 152q25 0 33 4t8 23v331q0 18 -9 22.5t-32 4.5q-88 0 -129 -55q-36 -48 -36 -138q0 -89 36 -137q41 -55 129 -55zM494 124v-28
q0 -43 15.5 -55.5t67.5 -12.5v-28h-303v28q52 0 67 13t15 55v28h-55q-148 0 -222 63q-67 57 -67 157t66 157q75 64 223 64h55q0 42 -15.5 55.5t-66.5 13.5v27h303v-27q-52 0 -67.5 -13.5t-15.5 -55.5h55q148 0 222 -63q68 -58 68 -158q0 -99 -67 -156q-75 -64 -223 -64h-55z
" />
    <glyph glyph-name="Ocircumflex" unicode="&#x424;" horiz-adv-x="876" 
d="M535 537q-25 0 -33 -4t-8 -23v-331q0 -22 12.5 -24.5t28.5 -2.5q88 0 129 54q37 49 37 138q0 90 -36 138q-41 55 -130 55zM315 152q25 0 33 4t8 23v331q0 18 -9 22.5t-32 4.5q-88 0 -129 -55q-36 -48 -36 -138q0 -89 36 -137q41 -55 129 -55zM494 124v-28
q0 -43 15.5 -55.5t67.5 -12.5v-28h-303v28q52 0 67 13t15 55v28h-55q-148 0 -222 63q-67 57 -67 157t66 157q75 64 223 64h55q0 42 -15.5 55.5t-66.5 13.5v27h303v-27q-52 0 -67.5 -13.5t-15.5 -55.5h55q148 0 222 -63q68 -58 68 -158q0 -99 -67 -156q-75 -64 -223 -64h-55z
" />
    <glyph glyph-name="Otilde" unicode="&#xd5;" horiz-adv-x="804" 
d="M628 565l-179 -197l207 -272q29 -39 53.5 -53.5t56.5 -14.5v-28h-303v28q22 0 31.5 3t9.5 12q0 17 -28 53l-124 166l-151 -166q-30 -28 -30 -45q0 -23 57 -23v-28h-220v28q42 0 69 13t69 55l181 197l-209 272q-30 40 -54 54.5t-56 14.5v27h303v-27q-43 0 -43 -18
q0 -7 7 -18.5t22 -32.5l126 -165l150 165q27 27 27 43q0 26 -55 26v27h221v-27q-43 0 -69 -13t-69 -56z" />
    <glyph glyph-name="Otilde" unicode="&#x425;" horiz-adv-x="804" 
d="M628 565l-179 -197l207 -272q29 -39 53.5 -53.5t56.5 -14.5v-28h-303v28q22 0 31.5 3t9.5 12q0 17 -28 53l-124 166l-151 -166q-30 -28 -30 -45q0 -23 57 -23v-28h-220v28q42 0 69 13t69 55l181 197l-209 272q-30 40 -54 54.5t-56 14.5v27h303v-27q-43 0 -43 -18
q0 -7 7 -18.5t22 -32.5l126 -165l150 165q27 27 27 43q0 26 -55 26v27h221v-27q-43 0 -69 -13t-69 -56z" />
    <glyph glyph-name="Odieresis" unicode="&#xd6;" horiz-adv-x="865" 
d="M669 0h-661v28q51 0 67 13t16 55v469q0 42 -15.5 55.5t-67.5 13.5v27h303v-27q-51 0 -67 -13t-16 -56v-537h345v537q0 42 -15.5 55.5t-67.5 13.5v27h303v-27q-52 0 -67 -13t-15 -56v-469q0 -41 15.5 -54.5t66.5 -13.5h42v-166h-28q0 80 -31 109t-107 29z" />
    <glyph glyph-name="Odieresis" unicode="&#x426;" horiz-adv-x="865" 
d="M669 0h-661v28q51 0 67 13t16 55v469q0 42 -15.5 55.5t-67.5 13.5v27h303v-27q-51 0 -67 -13t-16 -56v-537h345v537q0 42 -15.5 55.5t-67.5 13.5v27h303v-27q-52 0 -67 -13t-15 -56v-469q0 -41 15.5 -54.5t66.5 -13.5h42v-166h-28q0 80 -31 109t-107 29z" />
    <glyph glyph-name="multiply" unicode="&#xd7;" horiz-adv-x="762" 
d="M228 482q0 -73 29 -108q36 -43 127 -43q19 0 51.5 3.5t68.5 9.5v221q0 42 -15.5 55.5t-67.5 13.5v27h303v-27q-49 0 -65.5 -13.5t-16.5 -55.5v-469q0 -43 15.5 -55.5t66.5 -12.5v-28h-303v28q51 0 67 13t16 55v221l-207 -28q-123 0 -170 55q-36 43 -36 138v83
q0 42 -15.5 55.5t-67.5 13.5v27h303v-27q-50 0 -66.5 -13.5t-16.5 -55.5v-83z" />
    <glyph glyph-name="multiply" unicode="&#x427;" horiz-adv-x="762" 
d="M228 482q0 -73 29 -108q36 -43 127 -43q19 0 51.5 3.5t68.5 9.5v221q0 42 -15.5 55.5t-67.5 13.5v27h303v-27q-49 0 -65.5 -13.5t-16.5 -55.5v-469q0 -43 15.5 -55.5t66.5 -12.5v-28h-303v28q51 0 67 13t16 55v221l-207 -28q-123 0 -170 55q-36 43 -36 138v83
q0 42 -15.5 55.5t-67.5 13.5v27h303v-27q-50 0 -66.5 -13.5t-16.5 -55.5v-83z" />
    <glyph glyph-name="Oslash" unicode="&#xd8;" horiz-adv-x="1144" 
d="M1110 0h-1102v28q51 0 67 13t16 55v469q0 42 -15.5 55.5t-67.5 13.5v27h303v-27q-51 0 -67 -13t-16 -56v-537h262v537q0 42 -15.5 55.5t-67.5 13.5v27h304v-27q-51 0 -67 -13t-16 -56v-537h262v537q0 43 -15 56t-68 13v27h303v-27q-52 0 -67 -13t-15 -56v-469
q0 -41 15.5 -54.5t66.5 -13.5v-28z" />
    <glyph glyph-name="Oslash" unicode="&#x428;" horiz-adv-x="1144" 
d="M1110 0h-1102v28q51 0 67 13t16 55v469q0 42 -15.5 55.5t-67.5 13.5v27h303v-27q-51 0 -67 -13t-16 -56v-537h262v537q0 42 -15.5 55.5t-67.5 13.5v27h304v-27q-51 0 -67 -13t-16 -56v-537h262v537q0 43 -15 56t-68 13v27h303v-27q-52 0 -67 -13t-15 -56v-469
q0 -41 15.5 -54.5t66.5 -13.5v-28z" />
    <glyph glyph-name="Ugrave" unicode="&#xd9;" horiz-adv-x="1185" 
d="M990 0h-978v28q52 0 67 13t15 55v469q0 42 -15.5 55.5t-66.5 13.5v27h303v-27q-51 0 -67 -13t-16 -56v-537h262v537q0 42 -15.5 55.5t-67.5 13.5v27h304v-27q-51 0 -67 -13t-16 -56v-537h262v537q0 43 -15 56t-68 13v27h303v-27q-52 0 -67.5 -13.5t-15.5 -55.5v-469
q0 -41 16 -54.5t67 -13.5h42v-166h-28q0 80 -31 109t-107 29z" />
    <glyph glyph-name="Ugrave" unicode="&#x429;" horiz-adv-x="1185" 
d="M990 0h-978v28q52 0 67 13t15 55v469q0 42 -15.5 55.5t-66.5 13.5v27h303v-27q-51 0 -67 -13t-16 -56v-537h262v537q0 42 -15.5 55.5t-67.5 13.5v27h304v-27q-51 0 -67 -13t-16 -56v-537h262v537q0 43 -15 56t-68 13v27h303v-27q-52 0 -67.5 -13.5t-15.5 -55.5v-469
q0 -41 16 -54.5t67 -13.5h42v-166h-28q0 80 -31 109t-107 29z" />
    <glyph glyph-name="Uacute" unicode="&#xda;" horiz-adv-x="833" 
d="M152 661h358v-27q-51 0 -67 -13t-16 -56v-221h124q118 0 183 -44t65 -135q0 -72 -68 -118.5t-180 -46.5h-344v28q52 0 67 13t15 55v497q0 41 -41 41q-80 0 -139 -56q-34 -32 -81 -109l-20 7l61 213h27q25 -28 56 -28zM496 28q82 0 123.5 38.5t41.5 112.5
q0 75 -45.5 107.5t-129.5 32.5h-27.5t-31.5 -2v-234q0 -32 14 -43.5t55 -11.5z" />
    <glyph glyph-name="Uacute" unicode="&#x42a;" horiz-adv-x="833" 
d="M152 661h358v-27q-51 0 -67 -13t-16 -56v-221h124q118 0 183 -44t65 -135q0 -72 -68 -118.5t-180 -46.5h-344v28q52 0 67 13t15 55v497q0 41 -41 41q-80 0 -139 -56q-34 -32 -81 -109l-20 7l61 213h27q25 -28 56 -28zM496 28q82 0 123.5 38.5t41.5 112.5
q0 75 -45.5 107.5t-129.5 32.5h-27.5t-31.5 -2v-234q0 -32 14 -43.5t55 -11.5z" />
    <glyph glyph-name="Ucircumflex" unicode="&#xdb;" horiz-adv-x="937" 
d="M293 28q82 0 124 39t42 112q0 75 -45.5 107.5t-130.5 32.5h-27.5t-31.5 -2v-234q0 -32 14 -43.5t55 -11.5zM348 0h-344v28q51 0 67 13t16 55v469q0 42 -15.5 55.5t-67.5 13.5v27h303v-27q-51 0 -67 -13t-16 -56v-221h124q118 0 183 -44t65 -135q0 -72 -68 -118.5
t-180 -46.5zM817 96q0 -43 15.5 -55.5t67.5 -12.5v-28h-304v28q51 0 67 13t16 55v469q0 42 -15.5 55.5t-67.5 13.5v27h304v-27q-50 0 -66.5 -13.5t-16.5 -55.5v-469z" />
    <glyph glyph-name="Ucircumflex" unicode="&#x42b;" horiz-adv-x="937" 
d="M293 28q82 0 124 39t42 112q0 75 -45.5 107.5t-130.5 32.5h-27.5t-31.5 -2v-234q0 -32 14 -43.5t55 -11.5zM348 0h-344v28q51 0 67 13t16 55v469q0 42 -15.5 55.5t-67.5 13.5v27h303v-27q-51 0 -67 -13t-16 -56v-221h124q118 0 183 -44t65 -135q0 -72 -68 -118.5
t-180 -46.5zM817 96q0 -43 15.5 -55.5t67.5 -12.5v-28h-304v28q51 0 67 13t16 55v469q0 42 -15.5 55.5t-67.5 13.5v27h304v-27q-50 0 -66.5 -13.5t-16.5 -55.5v-469z" />
    <glyph glyph-name="Udieresis" unicode="&#xdc;" horiz-adv-x="638" 
d="M301 28q82 0 124 39t42 112q0 75 -45.5 107.5t-130.5 32.5h-27.5t-31.5 -2v-234q0 -32 14 -43.5t55 -11.5zM356 0h-344v28q52 0 67 13t15 55v469q0 42 -15.5 55.5t-66.5 13.5v27h303v-27q-51 0 -67 -13t-16 -56v-221h124q118 0 183 -44t65 -135q0 -72 -68 -118.5
t-180 -46.5z" />
    <glyph glyph-name="Udieresis" unicode="&#x42c;" horiz-adv-x="638" 
d="M301 28q82 0 124 39t42 112q0 75 -45.5 107.5t-130.5 32.5h-27.5t-31.5 -2v-234q0 -32 14 -43.5t55 -11.5zM356 0h-344v28q52 0 67 13t15 55v469q0 42 -15.5 55.5t-66.5 13.5v27h303v-27q-51 0 -67 -13t-16 -56v-221h124q118 0 183 -44t65 -135q0 -72 -68 -118.5
t-180 -46.5z" />
    <glyph glyph-name="Yacute" unicode="&#xdd;" horiz-adv-x="597" 
d="M146 358h275q0 142 -62 221q-54 69 -131 69q-63 0 -114 -49q-59 -56 -79 -158h-27v220h27q12 -23 26 -23q5 0 15 4l15 6q29 13 66.5 20t70.5 7q134 0 228 -89q103 -97 103 -255t-103 -255q-95 -90 -228 -90q-32 0 -65.5 7.5t-58.5 20.5q-14 7 -26 10.5t-19 3.5
q-24 0 -24 -42h-27v234h27q18 -100 77 -156q52 -50 116 -50q80 0 133 75q60 85 60 242h-275v27z" />
    <glyph glyph-name="Yacute" unicode="&#x42d;" horiz-adv-x="597" 
d="M146 358h275q0 142 -62 221q-54 69 -131 69q-63 0 -114 -49q-59 -56 -79 -158h-27v220h27q12 -23 26 -23q5 0 15 4l15 6q29 13 66.5 20t70.5 7q134 0 228 -89q103 -97 103 -255t-103 -255q-95 -90 -228 -90q-32 0 -65.5 7.5t-58.5 20.5q-14 7 -26 10.5t-19 3.5
q-24 0 -24 -42h-27v234h27q18 -100 77 -156q52 -50 116 -50q80 0 133 75q60 85 60 242h-275v27z" />
    <glyph glyph-name="Thorn" unicode="&#xde;" horiz-adv-x="1030" 
d="M228 358h111q0 145 105 235q95 82 225 82q134 0 228 -89q103 -97 103 -255t-103 -255q-95 -90 -228 -90t-227 89q-103 97 -103 256h-111v-235q0 -43 15.5 -55.5t67.5 -12.5v-28h-303v28q51 0 67 13t16 55v469q0 42 -15.5 55.5t-67.5 13.5v27h303v-27q-50 0 -66.5 -13.5
t-16.5 -55.5v-207zM862 331q0 155 -60 241q-53 76 -133 76q-79 0 -132 -76q-61 -87 -61 -241q0 -155 60 -241q53 -76 133 -76t133 75q60 85 60 242z" />
    <glyph glyph-name="Thorn" unicode="&#x42e;" horiz-adv-x="1030" 
d="M228 358h111q0 145 105 235q95 82 225 82q134 0 228 -89q103 -97 103 -255t-103 -255q-95 -90 -228 -90t-227 89q-103 97 -103 256h-111v-235q0 -43 15.5 -55.5t67.5 -12.5v-28h-303v28q51 0 67 13t16 55v469q0 42 -15.5 55.5t-67.5 13.5v27h303v-27q-50 0 -66.5 -13.5
t-16.5 -55.5v-207zM862 331q0 155 -60 241q-53 76 -133 76q-79 0 -132 -76q-61 -87 -61 -241q0 -155 60 -241q53 -76 133 -76t133 75q60 85 60 242z" />
    <glyph glyph-name="germandbls" unicode="&#xdf;" horiz-adv-x="772" 
d="M297 337q-77 16 -121 61.5t-44 111.5q0 71 67 111t181 40h358v-27q-52 0 -67 -13t-15 -56v-469q0 -41 15.5 -54.5t66.5 -13.5v-28h-303v28q52 0 67.5 12.5t15.5 55.5v235q-54 0 -81 -8q-52 -15 -71 -61l-124 -262h-234v28q57 0 72 6q22 9 52 49l110 206q15 20 30 32
q8 6 25 16zM518 358v276l-55 2q-93 0 -143 -34.5t-50 -105.5q0 -70 44.5 -104t120.5 -34h83z" />
    <glyph glyph-name="germandbls" unicode="&#x42f;" horiz-adv-x="772" 
d="M297 337q-77 16 -121 61.5t-44 111.5q0 71 67 111t181 40h358v-27q-52 0 -67 -13t-15 -56v-469q0 -41 15.5 -54.5t66.5 -13.5v-28h-303v28q52 0 67.5 12.5t15.5 55.5v235q-54 0 -81 -8q-52 -15 -71 -61l-124 -262h-234v28q57 0 72 6q22 9 52 49l110 206q15 20 30 32
q8 6 25 16zM518 358v276l-55 2q-93 0 -143 -34.5t-50 -105.5q0 -70 44.5 -104t120.5 -34h83z" />
    <glyph glyph-name="agrave" unicode="&#xe0;" horiz-adv-x="493" 
d="M307 262q0 61 -31.5 92.5t-76.5 31.5h-16q-31 0 -58 -43.5t-27 -106.5l2 -16q0 -89 45 -139q38 -42 89 -42q20 0 40 8.5t33 21.5v193zM404 96q0 -29 6 -38q11 -17 49 -17v-27l-152 -28v55q-20 -26 -52.5 -40.5t-71.5 -14.5q-70 0 -120 45q-59 53 -59 148l-2 16
q0 93 48 152q54 66 147 66q60 0 96 -15q27 -13 55 -26l56 41v-317z" />
    <glyph glyph-name="agrave" unicode="&#x430;" horiz-adv-x="493" 
d="M307 262q0 61 -31.5 92.5t-76.5 31.5h-16q-31 0 -58 -43.5t-27 -106.5l2 -16q0 -89 45 -139q38 -42 89 -42q20 0 40 8.5t33 21.5v193zM404 96q0 -29 6 -38q11 -17 49 -17v-27l-152 -28v55q-20 -26 -52.5 -40.5t-71.5 -14.5q-70 0 -120 45q-59 53 -59 148l-2 16
q0 93 48 152q54 66 147 66q60 0 96 -15q27 -13 55 -26l56 41v-317z" />
    <glyph glyph-name="aacute" unicode="&#xe1;" horiz-adv-x="483" 
d="M35 372v-63q61 104 193 104q95 0 158 -57t63 -149q0 -101 -63 -161t-158 -60q-96 0 -156 58q-64 62 -64 163v220q0 114 68 172q58 49 152 49l81 -2q92 0 98 29h28q0 -73 -50 -105.5t-155 -32.5q-118 0 -156.5 -31t-38.5 -134zM329 220q-15 79 -57 125q-36 39 -73 39h-12
q-29 -6 -49 -38.5t-20 -81.5q0 -28 10 -71q20 -88 58 -138q33 -43 68 -43l14 2q29 7 49 39t20 89q0 27 -1.5 41.5t-6.5 36.5z" />
    <glyph glyph-name="aacute" unicode="&#x431;" horiz-adv-x="483" 
d="M35 372v-63q61 104 193 104q95 0 158 -57t63 -149q0 -101 -63 -161t-158 -60q-96 0 -156 58q-64 62 -64 163v220q0 114 68 172q58 49 152 49l81 -2q92 0 98 29h28q0 -73 -50 -105.5t-155 -32.5q-118 0 -156.5 -31t-38.5 -134zM329 220q-15 79 -57 125q-36 39 -73 39h-12
q-29 -6 -49 -38.5t-20 -81.5q0 -28 10 -71q20 -88 58 -138q33 -43 68 -43l14 2q29 7 49 39t20 89q0 27 -1.5 41.5t-6.5 36.5z" />
    <glyph glyph-name="acircumflex" unicode="&#xe2;" horiz-adv-x="410" 
d="M104 220q0 -91 27.5 -148.5t69.5 -57.5q32 0 57 30.5t25 79.5q0 34 -22.5 59.5t-53.5 25.5l-20 -2l-28 -4q-15 0 -15 8q0 13 26 21.5t40 23.5q18 19 18 47q0 31 -17 57t-38 26q-32 0 -50.5 -42t-18.5 -124zM175 411h6q78 0 115 -32q29 -25 29 -62q0 -40 -18.5 -61.5
t-50.5 -21.5q59 0 93 -34q31 -31 31 -76q0 -66 -46 -100q-51 -38 -161 -38q-82 0 -123.5 57.5t-41.5 163.5q0 92 47 148t120 56z" />
    <glyph glyph-name="acircumflex" unicode="&#x432;" horiz-adv-x="410" 
d="M104 220q0 -91 27.5 -148.5t69.5 -57.5q32 0 57 30.5t25 79.5q0 34 -22.5 59.5t-53.5 25.5l-20 -2l-28 -4q-15 0 -15 8q0 13 26 21.5t40 23.5q18 19 18 47q0 31 -17 57t-38 26q-32 0 -50.5 -42t-18.5 -124zM175 411h6q78 0 115 -32q29 -25 29 -62q0 -40 -18.5 -61.5
t-50.5 -21.5q59 0 93 -34q31 -31 31 -76q0 -66 -46 -100q-51 -38 -161 -38q-82 0 -123.5 57.5t-41.5 163.5q0 92 47 148t120 56z" />
    <glyph glyph-name="atilde" unicode="&#xe3;" horiz-adv-x="359" 
d="M329 165q0 -81 -44 -130t-108 -49q-73 0 -119 29.5t-46 80.5q0 54 46 98q24 23 78 54q83 42 83 83t-69 41q-35 0 -61 -25q-30 -30 -36 -85h-27q0 66 32 106q36 45 105 45q70 0 107 -23q45 -28 45 -87q0 -36 -22 -65q-26 -35 -105.5 -74.5t-79.5 -80.5q0 -30 18 -42.5
t51 -12.5q45 0 77 32q37 36 47 105h28z" />
    <glyph glyph-name="atilde" unicode="&#x433;" horiz-adv-x="359" 
d="M329 165q0 -81 -44 -130t-108 -49q-73 0 -119 29.5t-46 80.5q0 54 46 98q24 23 78 54q83 42 83 83t-69 41q-35 0 -61 -25q-30 -30 -36 -85h-27q0 66 32 106q36 45 105 45q70 0 107 -23q45 -28 45 -87q0 -36 -22 -65q-26 -35 -105.5 -74.5t-79.5 -80.5q0 -30 18 -42.5
t51 -12.5q45 0 77 32q37 36 47 105h28z" />
    <glyph glyph-name="adieresis" unicode="&#xe4;" horiz-adv-x="441" 
d="M104 -41q0 -38 24 -64q30 -33 87 -33q41 0 68.5 52t27.5 127q-20 -26 -52.5 -40.5t-71.5 -14.5q-70 0 -120 45q-59 53 -59 148l-2 16q0 93 48 152q54 66 147 66q60 0 96 -15q27 -13 55 -26l55 41v-330q0 -130 -39 -186q-44 -62 -153 -62q-99 0 -153 35t-54 89h96z
M104 220q0 -89 45 -139q38 -42 89 -42q20 0 40 8.5t33 21.5v193q0 67 -36 98q-31 26 -88 26q-31 0 -58 -43.5t-27 -106.5z" />
    <glyph glyph-name="adieresis" unicode="&#x434;" horiz-adv-x="441" 
d="M104 -41q0 -38 24 -64q30 -33 87 -33q41 0 68.5 52t27.5 127q-20 -26 -52.5 -40.5t-71.5 -14.5q-70 0 -120 45q-59 53 -59 148l-2 16q0 93 48 152q54 66 147 66q60 0 96 -15q27 -13 55 -26l55 41v-330q0 -130 -39 -186q-44 -62 -153 -62q-99 0 -153 35t-54 89h96z
M104 220q0 -89 45 -139q38 -42 89 -42q20 0 40 8.5t33 21.5v193q0 67 -36 98q-31 26 -88 26q-31 0 -58 -43.5t-27 -106.5z" />
    <glyph glyph-name="aring" unicode="&#xe5;" horiz-adv-x="432" 
d="M297 276v9q0 40 -26.5 70.5t-59.5 30.5h-10q-43 -5 -62 -19q-35 -26 -35 -91h193zM215 413q74 0 126.5 -46.5t52.5 -112.5v-20h-290q0 -81 44 -132q40 -47 94 -47q42 0 80 21.5t58 61.5l14 -14q-20 -70 -69.5 -104t-123.5 -34q-81 0 -134 51q-59 57 -59 156q0 94 58 157
t149 63z" />
    <glyph glyph-name="aring" unicode="&#x435;" horiz-adv-x="432" 
d="M297 276v9q0 40 -26.5 70.5t-59.5 30.5h-10q-43 -5 -62 -19q-35 -26 -35 -91h193zM215 413q74 0 126.5 -46.5t52.5 -112.5v-20h-290q0 -81 44 -132q40 -47 94 -47q42 0 80 21.5t58 61.5l14 -14q-20 -70 -69.5 -104t-123.5 -34q-81 0 -134 51q-59 57 -59 156q0 94 58 157
t149 63z" />
    <glyph glyph-name="ae" unicode="&#xe6;" horiz-adv-x="855" 
d="M362 207v110q0 32 -13.5 43.5t-55.5 11.5v28h235v-28q-40 0 -54.5 -12t-14.5 -43v-110l151 124q24 20 24 29q0 12 -38 12v28h180v-28q-39 0 -60.5 -8t-36.5 -20l-94 -76l122 -185q33 -34 52.5 -44.5t57.5 -10.5v-28h-234v28q23 0 23 13q0 14 -17 42l-79 124l-51 -42v-82
q0 -32 13.5 -43.5t55.5 -11.5v-28h-235v28q42 0 55.5 11.5t13.5 43.5v82l-51 42l-79 -124q-19 -29 -19 -42t25 -13v-28h-234v28q40 0 57.5 9.5t52.5 45.5l122 185l-94 76q-13 11 -33 18q-28 10 -64 10v28h179v-28q-39 0 -39 -12q0 -4 6.5 -11t19.5 -18z" />
    <glyph glyph-name="ae" unicode="&#x436;" horiz-adv-x="855" 
d="M362 207v110q0 32 -13.5 43.5t-55.5 11.5v28h235v-28q-40 0 -54.5 -12t-14.5 -43v-110l151 124q24 20 24 29q0 12 -38 12v28h180v-28q-39 0 -60.5 -8t-36.5 -20l-94 -76l122 -185q33 -34 52.5 -44.5t57.5 -10.5v-28h-234v28q23 0 23 13q0 14 -17 42l-79 124l-51 -42v-82
q0 -32 13.5 -43.5t55.5 -11.5v-28h-235v28q42 0 55.5 11.5t13.5 43.5v82l-51 42l-79 -124q-19 -29 -19 -42t25 -13v-28h-234v28q40 0 57.5 9.5t52.5 45.5l122 185l-94 76q-13 11 -33 18q-28 10 -64 10v28h179v-28q-39 0 -39 -12q0 -4 6.5 -11t19.5 -18z" />
    <glyph glyph-name="ccedilla" unicode="&#xe7;" horiz-adv-x="432" 
d="M274 317q0 23 -21 44q-25 25 -62 25q-29 0 -49 -23t-20 -46q0 -30 -16.5 -47.5t-38.5 -17.5q-26 0 -41 24q-10 12 -10 27q0 41 59.5 75.5t129.5 34.5q72 0 118.5 -27.5t46.5 -68.5q0 -40 -16.5 -57.5t-52.5 -25.5q55 -10 78 -34t23 -62l-4 -42q-10 -49 -71 -79.5
t-136 -30.5q-74 0 -122 46t-57 133h27q41 -109 124 -124q20 -4 32 -4q39 0 69 23t37 64v10q0 29 -23 51t-59 22h-42v27h14q33 0 58 22t25 61z" />
    <glyph glyph-name="ccedilla" unicode="&#x437;" horiz-adv-x="432" 
d="M274 317q0 23 -21 44q-25 25 -62 25q-29 0 -49 -23t-20 -46q0 -30 -16.5 -47.5t-38.5 -17.5q-26 0 -41 24q-10 12 -10 27q0 41 59.5 75.5t129.5 34.5q72 0 118.5 -27.5t46.5 -68.5q0 -40 -16.5 -57.5t-52.5 -25.5q55 -10 78 -34t23 -62l-4 -42q-10 -49 -71 -79.5
t-136 -30.5q-74 0 -122 46t-57 133h27q41 -109 124 -124q20 -4 32 -4q39 0 69 23t37 64v10q0 29 -23 51t-59 22h-42v27h14q33 0 58 22t25 61z" />
    <glyph glyph-name="egrave" unicode="&#xe8;" horiz-adv-x="575" 
d="M376 55q-28 -32 -67 -48.5t-83 -16.5q-64 0 -106 36q-47 40 -47 112v179q0 32 -13.5 43.5t-55.5 11.5v28h234v-28q-40 0 -54.5 -12t-14.5 -43v-179q0 -52 28 -81q25 -26 63 -26q30 0 61 14t55 38v234q0 32 -13.5 43.5t-55.5 11.5v28h234v-28q-40 0 -54.5 -12t-14.5 -43
v-221q0 -27 7 -38q11 -17 49 -17v-27l-152 -28v69z" />
    <glyph glyph-name="egrave" unicode="&#x438;" horiz-adv-x="575" 
d="M376 55q-28 -32 -67 -48.5t-83 -16.5q-64 0 -106 36q-47 40 -47 112v179q0 32 -13.5 43.5t-55.5 11.5v28h234v-28q-40 0 -54.5 -12t-14.5 -43v-179q0 -52 28 -81q25 -26 63 -26q30 0 61 14t55 38v234q0 32 -13.5 43.5t-55.5 11.5v28h234v-28q-40 0 -54.5 -12t-14.5 -43
v-221q0 -27 7 -38q11 -17 49 -17v-27l-152 -28v69z" />
    <glyph glyph-name="eacute" unicode="&#xe9;" horiz-adv-x="575" 
d="M228 500q9 -18 36 -18q26 0 35 18q-8 12 -8 24l2 13q0 56 55 56q56 0 56 -56q0 -26 -27 -44q-36 -24 -111 -24q-73 0 -110 24q-28 18 -28 44q0 56 55 56t55 -56q0 -10 -2.5 -20t-7.5 -17zM376 55q-28 -32 -67 -48.5t-83 -16.5q-64 0 -106 36q-47 40 -47 112v179
q0 32 -13.5 43.5t-55.5 11.5v28h234v-28q-40 0 -54.5 -12t-14.5 -43v-179q0 -52 28 -81q25 -26 63 -26q30 0 61 14t55 38v234q0 32 -13.5 43.5t-55.5 11.5v28h234v-28q-40 0 -54.5 -12t-14.5 -43v-221q0 -27 7 -38q11 -17 49 -17v-27l-152 -28v69z" />
    <glyph glyph-name="eacute" unicode="&#x439;" horiz-adv-x="575" 
d="M228 500q9 -18 36 -18q26 0 35 18q-8 12 -8 24l2 13q0 56 55 56q56 0 56 -56q0 -26 -27 -44q-36 -24 -111 -24q-73 0 -110 24q-28 18 -28 44q0 56 55 56t55 -56q0 -10 -2.5 -20t-7.5 -17zM376 55q-28 -32 -67 -48.5t-83 -16.5q-64 0 -106 36q-47 40 -47 112v179
q0 32 -13.5 43.5t-55.5 11.5v28h234v-28q-40 0 -54.5 -12t-14.5 -43v-179q0 -52 28 -81q25 -26 63 -26q30 0 61 14t55 38v234q0 32 -13.5 43.5t-55.5 11.5v28h234v-28q-40 0 -54.5 -12t-14.5 -43v-221q0 -27 7 -38q11 -17 49 -17v-27l-152 -28v69z" />
    <glyph glyph-name="ecircumflex" unicode="&#xea;" horiz-adv-x="597" 
d="M77 317q0 32 -13.5 43.5t-55.5 11.5v28h234v-28q-40 0 -54.5 -12t-14.5 -43v-110l152 124q23 19 23 29q0 12 -37 12v28h179v-28q-39 0 -61 -8t-35 -20l-97 -78l152 -183q33 -34 52.5 -44.5t57.5 -10.5v-28h-234v28q29 0 29 7q0 8 -29 48l-101 124l-51 -42v-82
q0 -32 14 -43.5t55 -11.5v-28h-234v28q42 0 55.5 11.5t13.5 43.5v234z" />
    <glyph glyph-name="ecircumflex" unicode="&#x43a;" horiz-adv-x="597" 
d="M77 317q0 32 -13.5 43.5t-55.5 11.5v28h234v-28q-40 0 -54.5 -12t-14.5 -43v-110l152 124q23 19 23 29q0 12 -37 12v28h179v-28q-39 0 -61 -8t-35 -20l-97 -78l152 -183q33 -34 52.5 -44.5t57.5 -10.5v-28h-234v28q29 0 29 7q0 8 -29 48l-101 124l-51 -42v-82
q0 -32 14 -43.5t55 -11.5v-28h-234v28q42 0 55.5 11.5t13.5 43.5v234z" />
    <glyph glyph-name="edieresis" unicode="&#xeb;" horiz-adv-x="575" 
d="M100 400h441v-28q-40 0 -54.5 -12t-14.5 -43v-234q0 -32 14 -43.5t55 -11.5v-28h-234v28q42 0 55.5 11.5t13.5 43.5v289h-179v-248q0 -66 -41 -105q-35 -33 -81 -33q-30 0 -50.5 15.5t-20.5 39.5q0 26 14 39t35 13q37 0 61 -24q7 -7 14 -11.5t12 -4.5q12 0 20.5 24
t8.5 75v165q0 32 -13.5 43.5t-55.5 11.5v28z" />
    <glyph glyph-name="edieresis" unicode="&#x43b;" horiz-adv-x="575" 
d="M100 400h441v-28q-40 0 -54.5 -12t-14.5 -43v-234q0 -32 14 -43.5t55 -11.5v-28h-234v28q42 0 55.5 11.5t13.5 43.5v289h-179v-248q0 -66 -41 -105q-35 -33 -81 -33q-30 0 -50.5 15.5t-20.5 39.5q0 26 14 39t35 13q37 0 61 -24q7 -7 14 -11.5t12 -4.5q12 0 20.5 24
t8.5 75v165q0 32 -13.5 43.5t-55.5 11.5v28z" />
    <glyph glyph-name="igrave" unicode="&#xec;" horiz-adv-x="617" 
d="M421 400h166v-28q-40 0 -54.5 -12t-14.5 -43v-234q0 -32 13.5 -43.5t55.5 -11.5v-28h-235v28q42 0 55.5 11.5t13.5 43.5v248l-138 -331h-27l-152 317v-234q0 -32 14 -43.5t55 -11.5v-28h-165v28q42 0 55.5 11.5t13.5 43.5v234q0 32 -13.5 43.5t-55.5 11.5v28h167
l132 -276z" />
    <glyph glyph-name="igrave" unicode="&#x43c;" horiz-adv-x="617" 
d="M421 400h166v-28q-40 0 -54.5 -12t-14.5 -43v-234q0 -32 13.5 -43.5t55.5 -11.5v-28h-235v28q42 0 55.5 11.5t13.5 43.5v248l-138 -331h-27l-152 317v-234q0 -32 14 -43.5t55 -11.5v-28h-165v28q42 0 55.5 11.5t13.5 43.5v234q0 32 -13.5 43.5t-55.5 11.5v28h167
l132 -276z" />
    <glyph glyph-name="iacute" unicode="&#xed;" horiz-adv-x="575" 
d="M169 207v-124q0 -32 14 -43.5t55 -11.5v-28h-234v28q42 0 55.5 11.5t13.5 43.5v234q0 32 -13.5 43.5t-55.5 11.5v28h234v-28q-40 0 -54.5 -12t-14.5 -43v-83h207v83q0 32 -13.5 43.5t-55.5 11.5v28h234v-28q-40 0 -54.5 -12t-14.5 -43v-234q0 -32 14 -43.5t55 -11.5v-28
h-234v28q42 0 55.5 11.5t13.5 43.5v124h-207z" />
    <glyph glyph-name="iacute" unicode="&#x43d;" horiz-adv-x="575" 
d="M169 207v-124q0 -32 14 -43.5t55 -11.5v-28h-234v28q42 0 55.5 11.5t13.5 43.5v234q0 32 -13.5 43.5t-55.5 11.5v28h234v-28q-40 0 -54.5 -12t-14.5 -43v-83h207v83q0 32 -13.5 43.5t-55.5 11.5v28h234v-28q-40 0 -54.5 -12t-14.5 -43v-234q0 -32 14 -43.5t55 -11.5v-28
h-234v28q42 0 55.5 11.5t13.5 43.5v124h-207z" />
    <glyph glyph-name="icircumflex" unicode="&#xee;" horiz-adv-x="483" 
d="M228 -14q-96 0 -156 58q-64 62 -64 163q0 92 63 149t157 57q95 0 158 -57t63 -149q0 -101 -63 -161t-158 -60zM329 220q-15 79 -57 125q-36 39 -73 39h-12q-29 -6 -49 -38.5t-20 -81.5q0 -28 10 -71q20 -88 58 -138q33 -43 68 -43l14 2q29 7 49 39t20 89q0 27 -1.5 41.5
t-6.5 36.5z" />
    <glyph glyph-name="icircumflex" unicode="&#x43e;" horiz-adv-x="483" 
d="M228 -14q-96 0 -156 58q-64 62 -64 163q0 92 63 149t157 57q95 0 158 -57t63 -149q0 -101 -63 -161t-158 -60zM329 220q-15 79 -57 125q-36 39 -73 39h-12q-29 -6 -49 -38.5t-20 -81.5q0 -28 10 -71q20 -88 58 -138q33 -43 68 -43l14 2q29 7 49 39t20 89q0 27 -1.5 41.5
t-6.5 36.5z" />
    <glyph glyph-name="idieresis" unicode="&#xef;" horiz-adv-x="575" 
d="M173 427v-83q28 32 67 48.5t81 16.5q64 0 107 -36q48 -41 48 -111v-179q0 -32 14 -43.5t55 -11.5v-28h-234v28q42 0 55.5 11.5t13.5 43.5v179q0 53 -26.5 78.5t-66.5 25.5q-30 0 -60.5 -13t-53.5 -36v-234q0 -32 14 -43.5t55 -11.5v-28h-234v28q42 0 55.5 11.5t13.5 43.5
v220q0 29 -6 38q-11 17 -49 17v28q51 0 84.5 9.5t66.5 31.5z" />
    <glyph glyph-name="idieresis" unicode="&#x43f;" horiz-adv-x="575" 
d="M173 427v-83q28 32 67 48.5t81 16.5q64 0 107 -36q48 -41 48 -111v-179q0 -32 14 -43.5t55 -11.5v-28h-234v28q42 0 55.5 11.5t13.5 43.5v179q0 53 -26.5 78.5t-66.5 25.5q-30 0 -60.5 -13t-53.5 -36v-234q0 -32 14 -43.5t55 -11.5v-28h-234v28q42 0 55.5 11.5t13.5 43.5
v220q0 29 -6 38q-11 17 -49 17v28q51 0 84.5 9.5t66.5 31.5z" />
    <glyph glyph-name="eth" unicode="&#xf0;" horiz-adv-x="502" 
d="M73 -83v386q0 29 -6 38q-11 17 -49 17v28q51 0 84.5 9.5t66.5 31.5v-69q19 27 51.5 41t70.5 14q70 0 121 -45q60 -53 60 -148v-17q0 -93 -47 -152q-52 -65 -145 -65q-41 0 -64.5 9.5t-46.5 32.5v-111q0 -32 13.5 -43.5t55.5 -11.5v-27h-234v27q40 0 54.5 12t14.5 43z
M169 138q0 -61 31 -93.5t76 -32.5l17 2q31 0 57 42.5t26 104.5v18q0 89 -46 138q-38 41 -90 41q-19 0 -38.5 -7.5t-32.5 -19.5v-193z" />
    <glyph glyph-name="eth" unicode="&#x440;" horiz-adv-x="502" 
d="M73 -83v386q0 29 -6 38q-11 17 -49 17v28q51 0 84.5 9.5t66.5 31.5v-69q19 27 51.5 41t70.5 14q70 0 121 -45q60 -53 60 -148v-17q0 -93 -47 -152q-52 -65 -145 -65q-41 0 -64.5 9.5t-46.5 32.5v-111q0 -32 13.5 -43.5t55.5 -11.5v-27h-234v27q40 0 54.5 12t14.5 43z
M169 138q0 -61 31 -93.5t76 -32.5l17 2q31 0 57 42.5t26 104.5v18q0 89 -46 138q-38 41 -90 41q-19 0 -38.5 -7.5t-32.5 -19.5v-193z" />
    <glyph glyph-name="ntilde" unicode="&#xf1;" horiz-adv-x="432" 
d="M201 413q56 0 101.5 -16.5t71.5 -53.5q12 -21 12 -42q0 -22 -17 -37.5t-44 -15.5q-39 0 -59.5 65.5t-78.5 72.5h-6q-34 0 -56.5 -41.5t-22.5 -102.5l2 -22q0 -86 41 -136q35 -43 83 -43q51 0 84 30t54 94h28q-10 -102 -89 -148q-53 -31 -118 -31q-72 0 -121 44
q-58 52 -58 149l-2 12q0 91 54.5 156.5t140.5 65.5z" />
    <glyph glyph-name="ntilde" unicode="&#x441;" horiz-adv-x="432" 
d="M201 413q56 0 101.5 -16.5t71.5 -53.5q12 -21 12 -42q0 -22 -17 -37.5t-44 -15.5q-39 0 -59.5 65.5t-78.5 72.5h-6q-34 0 -56.5 -41.5t-22.5 -102.5l2 -22q0 -86 41 -136q35 -43 83 -43q51 0 84 30t54 94h28q-10 -102 -89 -148q-53 -31 -118 -31q-72 0 -121 44
q-58 52 -58 149l-2 12q0 91 54.5 156.5t140.5 65.5z" />
    <glyph glyph-name="ograve" unicode="&#xf2;" horiz-adv-x="855" 
d="M445 331q30 39 72 59.5t87 20.5q60 0 100 -37q44 -41 44 -112v-179q0 -32 14 -43.5t55 -11.5v-28h-234v28q42 0 55.5 11.5t13.5 43.5v179q0 52 -23.5 78t-59.5 26q-28 0 -60.5 -15.5t-55.5 -39.5q1 -2 3.5 -19t2.5 -30v-179q0 -32 13.5 -43.5t55.5 -11.5v-28h-235v28
q42 0 55.5 11.5t13.5 43.5v179q0 53 -23.5 78.5t-60.5 25.5q-27 0 -56.5 -13.5t-52.5 -35.5v-234q0 -32 14 -43.5t55 -11.5v-28h-234v28q42 0 55.5 11.5t13.5 43.5v220q0 29 -6 38q-11 17 -49 17v28q51 0 84.5 9.5t66.5 31.5v-83q31 34 68 50.5t76 16.5q43 0 78.5 -20.5
t53.5 -59.5z" />
    <glyph glyph-name="ograve" unicode="&#x442;" horiz-adv-x="855" 
d="M445 331q30 39 72 59.5t87 20.5q60 0 100 -37q44 -41 44 -112v-179q0 -32 14 -43.5t55 -11.5v-28h-234v28q42 0 55.5 11.5t13.5 43.5v179q0 52 -23.5 78t-59.5 26q-28 0 -60.5 -15.5t-55.5 -39.5q1 -2 3.5 -19t2.5 -30v-179q0 -32 13.5 -43.5t55.5 -11.5v-28h-235v28
q42 0 55.5 11.5t13.5 43.5v179q0 53 -23.5 78.5t-60.5 25.5q-27 0 -56.5 -13.5t-52.5 -35.5v-234q0 -32 14 -43.5t55 -11.5v-28h-234v28q42 0 55.5 11.5t13.5 43.5v220q0 29 -6 38q-11 17 -49 17v28q51 0 84.5 9.5t66.5 31.5v-83q31 34 68 50.5t76 16.5q43 0 78.5 -20.5
t53.5 -59.5z" />
    <glyph glyph-name="oacute" unicode="&#xf3;" horiz-adv-x="546" 
d="M232 -110q-12 -32 -38 -48q-21 -13 -48 -13t-46 13.5t-19 33.5q0 25 15 40t38 15q10 0 22.5 -4t22.5 -10q1 -1 8 -2q12 0 25.5 20.5t29.5 60.5l-148 321q-16 34 -27 43q-15 12 -55 12v28h234v-28q-47 0 -47 -29q0 -3 2 -11t4 -15l92 -201l91 201l4 20q0 16 -18.5 25.5
t-44.5 9.5v28h179v-28q-37 0 -57 -17q-11 -10 -26 -38z" />
    <glyph glyph-name="oacute" unicode="&#x443;" horiz-adv-x="546" 
d="M232 -110q-12 -32 -38 -48q-21 -13 -48 -13t-46 13.5t-19 33.5q0 25 15 40t38 15q10 0 22.5 -4t22.5 -10q1 -1 8 -2q12 0 25.5 20.5t29.5 60.5l-148 321q-16 34 -27 43q-15 12 -55 12v28h234v-28q-47 0 -47 -29q0 -3 2 -11t4 -15l92 -201l91 201l4 20q0 16 -18.5 25.5
t-44.5 9.5v28h179v-28q-37 0 -57 -17q-11 -10 -26 -38z" />
    <glyph glyph-name="ocircumflex" unicode="&#xf4;" horiz-adv-x="721" 
d="M508 14q31 0 57 42.5t26 104.5v18q0 89 -46 137q-38 40 -90 40q-15 0 -30.5 -4t-26.5 -11v-272q26 -57 90 -57zM301 57v274q-13 27 -39.5 41t-56.5 14h-14q-31 0 -58 -43.5t-27 -106.5l2 -16q0 -89 45 -139q38 -42 89 -42q15 0 30 4.5t29 13.5zM301 26q-40 -42 -110 -42
t-120 45q-59 54 -59 150l-2 16q0 93 48 152q54 66 147 66q65 0 96 -27v124q0 29 -6 38q-11 17 -49 17v28q50 0 84.5 9.5t67.5 31.5v-262q18 19 47.5 30t60.5 11q70 0 121 -45q60 -53 60 -148v-17q0 -93 -47 -152q-52 -65 -146 -65q-64 0 -96 28v-83q0 -32 13.5 -43.5
t55.5 -11.5v-28h-235v28q40 0 54.5 12t14.5 43v95z" />
    <glyph glyph-name="ocircumflex" unicode="&#x444;" horiz-adv-x="721" 
d="M508 14q31 0 57 42.5t26 104.5v18q0 89 -46 137q-38 40 -90 40q-15 0 -30.5 -4t-26.5 -11v-272q26 -57 90 -57zM301 57v274q-13 27 -39.5 41t-56.5 14h-14q-31 0 -58 -43.5t-27 -106.5l2 -16q0 -89 45 -139q38 -42 89 -42q15 0 30 4.5t29 13.5zM301 26q-40 -42 -110 -42
t-120 45q-59 54 -59 150l-2 16q0 93 48 152q54 66 147 66q65 0 96 -27v124q0 29 -6 38q-11 17 -49 17v28q50 0 84.5 9.5t67.5 31.5v-262q18 19 47.5 30t60.5 11q70 0 121 -45q60 -53 60 -148v-17q0 -93 -47 -152q-52 -65 -146 -65q-64 0 -96 28v-83q0 -32 13.5 -43.5
t55.5 -11.5v-28h-235v28q40 0 54.5 12t14.5 43v95z" />
    <glyph glyph-name="otilde" unicode="&#xf5;" horiz-adv-x="546" 
d="M108 317q-20 31 -41.5 43t-54.5 12v28h234v-28q-43 0 -43 -22q0 -5 6 -15.5l10 -17.5l59 -73l65 73q21 22 21 35q0 8 -10.5 14t-24.5 6v28h179v-28q-48 0 -71 -10q-14 -6 -39 -31l-99 -112l112 -136q20 -31 42.5 -43t54.5 -12v-28h-234v28q41 0 41 19q0 5 -4.5 16
t-9.5 20l-59 73l-65 -73q-23 -23 -23 -38q0 -8 10 -12.5t27 -4.5v-28h-179v28q39 0 63.5 9.5t46.5 31.5l98 112z" />
    <glyph glyph-name="otilde" unicode="&#x445;" horiz-adv-x="546" 
d="M108 317q-20 31 -41.5 43t-54.5 12v28h234v-28q-43 0 -43 -22q0 -5 6 -15.5l10 -17.5l59 -73l65 73q21 22 21 35q0 8 -10.5 14t-24.5 6v28h179v-28q-48 0 -71 -10q-14 -6 -39 -31l-99 -112l112 -136q20 -31 42.5 -43t54.5 -12v-28h-234v28q41 0 41 19q0 5 -4.5 16
t-9.5 20l-59 73l-65 -73q-23 -23 -23 -38q0 -8 10 -12.5t27 -4.5v-28h-179v28q39 0 63.5 9.5t46.5 31.5l98 112z" />
    <glyph glyph-name="odieresis" unicode="&#xf6;" horiz-adv-x="607" 
d="M376 55q-28 -32 -67 -48.5t-83 -16.5q-64 0 -106 36q-47 40 -47 112v179q0 32 -13.5 43.5t-55.5 11.5v28h234v-28q-40 0 -54.5 -12t-14.5 -43v-179q0 -52 28 -81q25 -26 63 -26q30 0 61 14t55 38v234q0 32 -13.5 43.5t-55.5 11.5v28h234v-28q-40 0 -54.5 -12t-14.5 -43
v-234q0 -32 14 -43.5t55 -11.5h28v-124h-28q0 44 -23 70t-73 26q-21 0 -38.5 -7.5t-30.5 -20.5v83z" />
    <glyph glyph-name="odieresis" unicode="&#x446;" horiz-adv-x="607" 
d="M376 55q-28 -32 -67 -48.5t-83 -16.5q-64 0 -106 36q-47 40 -47 112v179q0 32 -13.5 43.5t-55.5 11.5v28h234v-28q-40 0 -54.5 -12t-14.5 -43v-179q0 -52 28 -81q25 -26 63 -26q30 0 61 14t55 38v234q0 32 -13.5 43.5t-55.5 11.5v28h234v-28q-40 0 -54.5 -12t-14.5 -43
v-234q0 -32 14 -43.5t55 -11.5h28v-124h-28q0 44 -23 70t-73 26q-21 0 -38.5 -7.5t-30.5 -20.5v83z" />
    <glyph glyph-name="divide" unicode="&#xf7;" horiz-adv-x="565" 
d="M366 179q-23 -33 -69 -55t-92 -22q-55 0 -89 31q-39 35 -39 101v83q0 32 -13.5 43.5t-55.5 11.5v28h234v-28q-40 0 -54.5 -12t-14.5 -43v-69q0 -43 20 -67t55 -24q25 0 55.5 12t62.5 38v110q0 32 -13.5 43.5t-55.5 11.5v28h234v-28q-40 0 -54 -12t-14 -43v-234
q0 -32 13.5 -43.5t54.5 -11.5v-28h-234v28q42 0 55.5 11.5t13.5 43.5v96z" />
    <glyph glyph-name="divide" unicode="&#x447;" horiz-adv-x="565" 
d="M366 179q-23 -33 -69 -55t-92 -22q-55 0 -89 31q-39 35 -39 101v83q0 32 -13.5 43.5t-55.5 11.5v28h234v-28q-40 0 -54.5 -12t-14.5 -43v-69q0 -43 20 -67t55 -24q25 0 55.5 12t62.5 38v110q0 32 -13.5 43.5t-55.5 11.5v28h234v-28q-40 0 -54 -12t-14 -43v-234
q0 -32 13.5 -43.5t54.5 -11.5v-28h-234v28q42 0 55.5 11.5t13.5 43.5v96z" />
    <glyph glyph-name="oslash" unicode="&#xf8;" horiz-adv-x="855" 
d="M384 69q-30 -39 -73.5 -60t-88.5 -21q-59 0 -98 37q-43 41 -43 113v179q0 32 -13.5 43.5t-55.5 11.5v28h234v-28q-40 0 -54.5 -12t-14.5 -43v-179q0 -53 22.5 -80t58.5 -27q28 0 60.5 16t57.5 42q-3 5 -4.5 23.5t-1.5 25.5v179q0 32 -13.5 43.5t-55.5 11.5v28h234v-28
q-40 0 -54 -12t-14 -43v-179q0 -53 23 -80t59 -27q27 0 57 14t53 38v234q0 32 -13.5 43.5t-54.5 11.5v28h234v-28q-40 0 -54.5 -12t-14.5 -43v-221q0 -29 6 -38q11 -17 49 -17v-27q-51 0 -84.5 -9.5t-67.5 -32.5v83q-29 -32 -68 -49.5t-77 -17.5q-44 0 -78.5 20.5
t-51.5 60.5z" />
    <glyph glyph-name="oslash" unicode="&#x448;" horiz-adv-x="855" 
d="M384 69q-30 -39 -73.5 -60t-88.5 -21q-59 0 -98 37q-43 41 -43 113v179q0 32 -13.5 43.5t-55.5 11.5v28h234v-28q-40 0 -54.5 -12t-14.5 -43v-179q0 -53 22.5 -80t58.5 -27q28 0 60.5 16t57.5 42q-3 5 -4.5 23.5t-1.5 25.5v179q0 32 -13.5 43.5t-55.5 11.5v28h234v-28
q-40 0 -54 -12t-14 -43v-179q0 -53 23 -80t59 -27q27 0 57 14t53 38v234q0 32 -13.5 43.5t-54.5 11.5v28h234v-28q-40 0 -54.5 -12t-14.5 -43v-221q0 -29 6 -38q11 -17 49 -17v-27q-51 0 -84.5 -9.5t-67.5 -32.5v83q-29 -32 -68 -49.5t-77 -17.5q-44 0 -78.5 20.5
t-51.5 60.5z" />
    <glyph glyph-name="ugrave" unicode="&#xf9;" horiz-adv-x="886" 
d="M756 83q0 -32 14 -43.5t55 -11.5h27v-124h-27q0 45 -23 70.5t-74 25.5q-20 0 -38 -7.5t-31 -20.5v83q-29 -32 -68 -49.5t-77 -17.5q-44 0 -78.5 20.5t-51.5 60.5q-30 -39 -73.5 -60t-88.5 -21q-59 0 -98 37q-43 41 -43 113v179q0 32 -13.5 43.5t-55.5 11.5v28h234v-28
q-40 0 -54.5 -12t-14.5 -43v-179q0 -53 22.5 -80t58.5 -27q28 0 60.5 16t57.5 42q-3 5 -4.5 23.5t-1.5 25.5v179q0 32 -13.5 43.5t-55.5 11.5v28h234v-28q-40 0 -54 -12t-14 -43v-179q0 -53 23 -80t59 -27q27 0 57 14t53 38v234q0 32 -13.5 43.5t-54.5 11.5v28h234v-28
q-40 0 -54.5 -12t-14.5 -43v-234z" />
    <glyph glyph-name="ugrave" unicode="&#x449;" horiz-adv-x="886" 
d="M756 83q0 -32 14 -43.5t55 -11.5h27v-124h-27q0 45 -23 70.5t-74 25.5q-20 0 -38 -7.5t-31 -20.5v83q-29 -32 -68 -49.5t-77 -17.5q-44 0 -78.5 20.5t-51.5 60.5q-30 -39 -73.5 -60t-88.5 -21q-59 0 -98 37q-43 41 -43 113v179q0 32 -13.5 43.5t-55.5 11.5v28h234v-28
q-40 0 -54.5 -12t-14.5 -43v-179q0 -53 22.5 -80t58.5 -27q28 0 60.5 16t57.5 42q-3 5 -4.5 23.5t-1.5 25.5v179q0 32 -13.5 43.5t-55.5 11.5v28h234v-28q-40 0 -54 -12t-14 -43v-179q0 -53 23 -80t59 -27q27 0 57 14t53 38v234q0 32 -13.5 43.5t-54.5 11.5v28h234v-28
q-40 0 -54.5 -12t-14.5 -43v-234z" />
    <glyph glyph-name="uacute" unicode="&#xfa;" horiz-adv-x="556" 
d="M150 372q-59 0 -85 -26t-26 -70h-27v124h303v-28q-40 0 -54.5 -12t-14.5 -43v-69h69q115 0 165 -36q42 -30 42 -88q0 -70 -54.5 -97t-180.5 -27h-206v28q42 0 55.5 11.5t13.5 43.5v289zM246 220v-137q0 -31 12 -43t43 -12q63 0 93.5 22.5t30.5 73.5q0 41 -33.5 68.5
t-76.5 27.5h-69z" />
    <glyph glyph-name="uacute" unicode="&#x44a;" horiz-adv-x="556" 
d="M150 372q-59 0 -85 -26t-26 -70h-27v124h303v-28q-40 0 -54.5 -12t-14.5 -43v-69h69q115 0 165 -36q42 -30 42 -88q0 -70 -54.5 -97t-180.5 -27h-206v28q42 0 55.5 11.5t13.5 43.5v289zM246 220v-137q0 -31 12 -43t43 -12q63 0 93.5 22.5t30.5 73.5q0 41 -33.5 68.5
t-76.5 27.5h-69z" />
    <glyph glyph-name="ucircumflex" unicode="&#xfb;" horiz-adv-x="721" 
d="M219 0h-207v28q42 0 55.5 11.5t13.5 43.5v234q0 32 -13.5 43.5t-55.5 11.5v28h234v-28q-40 0 -54.5 -12t-14.5 -43v-69h69q115 0 165 -36q42 -30 42 -88q0 -70 -54 -97t-180 -27zM177 220v-137q0 -31 12 -43t43 -12q63 0 93.5 22.5t30.5 73.5q0 41 -33.5 68.5t-76.5 27.5
h-69zM618 317v-234q0 -32 14 -43.5t55 -11.5v-28h-234v28q42 0 55.5 11.5t13.5 43.5v234q0 32 -13.5 43.5t-55.5 11.5v28h234v-28q-40 0 -54.5 -12t-14.5 -43z" />
    <glyph glyph-name="ucircumflex" unicode="&#x44b;" horiz-adv-x="721" 
d="M219 0h-207v28q42 0 55.5 11.5t13.5 43.5v234q0 32 -13.5 43.5t-55.5 11.5v28h234v-28q-40 0 -54.5 -12t-14.5 -43v-69h69q115 0 165 -36q42 -30 42 -88q0 -70 -54 -97t-180 -27zM177 220v-137q0 -31 12 -43t43 -12q63 0 93.5 22.5t30.5 73.5q0 41 -33.5 68.5t-76.5 27.5
h-69zM618 317v-234q0 -32 14 -43.5t55 -11.5v-28h-234v28q42 0 55.5 11.5t13.5 43.5v234q0 32 -13.5 43.5t-55.5 11.5v28h234v-28q-40 0 -54.5 -12t-14.5 -43z" />
    <glyph glyph-name="udieresis" unicode="&#xfc;" horiz-adv-x="483" 
d="M219 0h-207v28q42 0 55.5 11.5t13.5 43.5v234q0 32 -13.5 43.5t-55.5 11.5v28h234v-28q-40 0 -54.5 -12t-14.5 -43v-69h69q115 0 165 -36q42 -30 42 -88q0 -70 -54 -97t-180 -27zM177 220v-137q0 -31 12 -43t43 -12q63 0 93.5 22.5t30.5 73.5q0 41 -33.5 68.5t-76.5 27.5
h-69z" />
    <glyph glyph-name="udieresis" unicode="&#x44c;" horiz-adv-x="483" 
d="M219 0h-207v28q42 0 55.5 11.5t13.5 43.5v234q0 32 -13.5 43.5t-55.5 11.5v28h234v-28q-40 0 -54.5 -12t-14.5 -43v-69h69q115 0 165 -36q42 -30 42 -88q0 -70 -54 -97t-180 -27zM177 220v-137q0 -31 12 -43t43 -12q63 0 93.5 22.5t30.5 73.5q0 41 -33.5 68.5t-76.5 27.5
h-69z" />
    <glyph glyph-name="yacute" unicode="&#xfd;" horiz-adv-x="432" 
d="M301 234q0 87 -27 122q-23 30 -69 30q-30 0 -56.5 -23.5t-26.5 -45.5q0 -30 -16.5 -47.5t-38.5 -17.5q-26 0 -41 24q-10 12 -10 27q0 41 59.5 75.5t129.5 34.5q87 0 140 -64.5t53 -157.5v-12q0 -96 -58 -148q-50 -45 -121 -45q-67 0 -118 30q-79 46 -89 149h27
q22 -64 54 -94t84 -30q49 0 82 36q40 44 40 130h-122v27h124z" />
    <glyph glyph-name="yacute" unicode="&#x44d;" horiz-adv-x="432" 
d="M301 234q0 87 -27 122q-23 30 -69 30q-30 0 -56.5 -23.5t-26.5 -45.5q0 -30 -16.5 -47.5t-38.5 -17.5q-26 0 -41 24q-10 12 -10 27q0 41 59.5 75.5t129.5 34.5q87 0 140 -64.5t53 -157.5v-12q0 -96 -58 -148q-50 -45 -121 -45q-67 0 -118 30q-79 46 -89 149h27
q22 -64 54 -94t84 -30q49 0 82 36q40 44 40 130h-122v27h124z" />
    <glyph glyph-name="thorn" unicode="&#xfe;" horiz-adv-x="731" 
d="M252 234q10 81 71 130t149 49q95 0 158 -57t63 -149q0 -101 -63 -161t-158 -60q-96 0 -156 58q-64 62 -64 163h-83v-124q0 -32 14 -43.5t55 -11.5v-28h-234v28q42 0 55.5 11.5t13.5 43.5v234q0 32 -13.5 43.5t-55.5 11.5v28h234v-28q-40 0 -54.5 -12t-14.5 -43v-83h83z
M573 220q-15 79 -57 125q-36 39 -73 39h-12q-29 -6 -49 -38.5t-20 -81.5q0 -28 10 -71q20 -88 58 -138q33 -43 68 -43l14 2q29 7 49 39t20 89q0 27 -1.5 41.5t-6.5 36.5z" />
    <glyph glyph-name="thorn" unicode="&#x44e;" horiz-adv-x="731" 
d="M252 234q10 81 71 130t149 49q95 0 158 -57t63 -149q0 -101 -63 -161t-158 -60q-96 0 -156 58q-64 62 -64 163h-83v-124q0 -32 14 -43.5t55 -11.5v-28h-234v28q42 0 55.5 11.5t13.5 43.5v234q0 32 -13.5 43.5t-55.5 11.5v28h234v-28q-40 0 -54.5 -12t-14.5 -43v-83h83z
M573 220q-15 79 -57 125q-36 39 -73 39h-12q-29 -6 -49 -38.5t-20 -81.5q0 -28 10 -71q20 -88 58 -138q33 -43 68 -43l14 2q29 7 49 39t20 89q0 27 -1.5 41.5t-6.5 36.5z" />
    <glyph glyph-name="ydieresis" unicode="&#xff;" horiz-adv-x="556" 
d="M187 159q-59 15 -82.5 40.5t-23.5 76.5q0 60 44.5 92t120.5 32h276v-28q-40 0 -54.5 -12t-14.5 -43v-234q0 -32 14 -43.5t55 -11.5v-28h-235v28q42 0 55.5 11.5t13.5 43.5v69h-55l-55 -69q-31 -40 -31 -48q0 -7 31 -7v-28h-234v28q40 0 57.5 9.5t52.5 45.5zM356 179v138
q0 32 -11.5 43.5t-43.5 11.5q-63 0 -93.5 -22.5t-30.5 -73.5q0 -48 34 -74q30 -23 76 -23h69z" />
    <glyph glyph-name="ydieresis" unicode="&#x44f;" horiz-adv-x="556" 
d="M187 159q-59 15 -82.5 40.5t-23.5 76.5q0 60 44.5 92t120.5 32h276v-28q-40 0 -54.5 -12t-14.5 -43v-234q0 -32 14 -43.5t55 -11.5v-28h-235v28q42 0 55.5 11.5t13.5 43.5v69h-55l-55 -69q-31 -40 -31 -48q0 -7 31 -7v-28h-234v28q40 0 57.5 9.5t52.5 45.5zM356 179v138
q0 32 -11.5 43.5t-43.5 11.5q-63 0 -93.5 -22.5t-30.5 -73.5q0 -48 34 -74q30 -23 76 -23h69z" />
    <glyph glyph-name="Ydieresis" unicode="&#x178;" horiz-adv-x="556" 
 />
    <glyph glyph-name="circumflex" unicode="&#x2c6;" horiz-adv-x="441" 
d="M197 551l-110 -234h-83l165 344h55l180 -344h-83z" />
    <glyph glyph-name="tilde" unicode="&#x2dc;" horiz-adv-x="463" 
d="M12 179q24 40 47 60q31 27 67 27q21 0 42.5 -7t48.5 -24t50 -26.5t40 -9.5q52 0 77 63l41 -42q-24 -40 -48 -61q-31 -27 -68 -27q-35 0 -89 33.5t-92 33.5q-50 0 -75 -61z" />
    <glyph glyph-name="quoteleft" unicode="&#x2018;" horiz-adv-x="182" 
d="M83 537q-37 4 -57 24.5t-20 46.5q0 20 13 39t36 28l26 4q28 0 49.5 -20.5t21.5 -52.5q0 -75 -37 -129q-29 -43 -80 -70l-13 20q30 16 49.5 46t19.5 51q0 13 -8 13z" />
    <glyph glyph-name="quoteright" unicode="&#x2019;" horiz-adv-x="182" 
d="M83 537q-37 4 -57 24.5t-20 46.5q0 20 13 39t36 28l26 4q28 0 49.5 -20.5t21.5 -52.5q0 -75 -37 -129q-29 -43 -80 -70l-13 20q30 16 49.5 46t19.5 51q0 13 -8 13z" />
    <glyph glyph-name="quotedblleft" unicode="&#x201c;" horiz-adv-x="276" 
d="M150 614l-2 6q0 22 13.5 35.5t31.5 13.5t31.5 -12.5t13.5 -34.5l-14 -181q0 -19 -8.5 -30t-18.5 -11t-19 11t-9 30zM18 441l-14 177v4q0 22 13.5 34.5t27.5 12.5q16 0 29 -12t13 -33v-4l-14 -179q0 -20 -8.5 -30.5t-19.5 -10.5q-10 0 -18.5 10.5t-8.5 30.5z" />
    <glyph glyph-name="quotedblright" unicode="&#x201d;" horiz-adv-x="276" 
d="M150 614l-2 6q0 22 13.5 35.5t31.5 13.5t31.5 -12.5t13.5 -34.5l-14 -181q0 -19 -8.5 -30t-18.5 -11t-19 11t-9 30zM18 441l-14 177v4q0 22 13.5 34.5t27.5 12.5q16 0 29 -12t13 -33v-4l-14 -179q0 -20 -8.5 -30.5t-19.5 -10.5q-10 0 -18.5 10.5t-8.5 30.5z" />
    <glyph glyph-name="guilsinglleft" unicode="&#x2039;" horiz-adv-x="502" 
d="M4 220l468 221v-83l-372 -165l372 -165v-83l-468 220v55z" />
    <glyph glyph-name="guilsinglright" unicode="&#x203a;" horiz-adv-x="502" 
d="M472 220v-55l-468 -220v83l372 165l-372 165v83z" />
    <glyph glyph-name="fraction" unicode="&#x2215;" horiz-adv-x="327" 
 />
  </font>
</defs>
</svg>
